<svg height="512" viewBox="0 0 64 64" width="512" xmlns="http://www.w3.org/2000/svg"><circle cx="18" cy="28" r="2"/><circle cx="24" cy="28" r="2"/><circle cx="30" cy="28" r="2"/><circle cx="18" cy="34" r="2"/><circle cx="24" cy="34" r="2"/><circle cx="30" cy="34" r="2"/><circle cx="18" cy="40" r="2"/><circle cx="24" cy="40" r="2"/><circle cx="30" cy="40" r="2"/><path d="m19 53h3v2h-3z"/><path d="m24 53h5v2h-5z"/><path d="m19 49h10v2h-10z"/><path d="m14 21h20a1 1 0 0 0 1-1v-14a1 1 0 0 0 -1-1h-20a1 1 0 0 0 -1 1v14a1 1 0 0 0 1 1zm1-2v-2h18v2zm18-12v8h-18v-8z"/><path d="m17 9h4v2h-4z"/><path d="m52 5h-13a3 3 0 0 0 -3-3h-24a3 3 0 0 0 -3 3v38a3 3 0 0 0 3 3h3v15a1 1 0 0 0 1.555.832l2.445-1.632 2.445 1.63a1 1 0 0 0 1.11 0l2.517-1.678 3.481 1.748a1 1 0 0 0 1-.063l3-2a1 1 0 0 0 .447-.837v-13h3a3 3 0 0 0 3-3v-2h13a3 3 0 0 0 3-3v-30a3 3 0 0 0 -3-3zm-11 2v32h-2v-32zm-30-2a1 1 0 0 1 1-1h24a1 1 0 0 1 1 1v16a1 1 0 0 1 -1 1h-24a1 1 0 0 1 -1-1zm20 53.465-2.072 1.381-3.481-1.741a1 1 0 0 0 -1 .063l-2.447 1.632-2.445-1.63a1 1 0 0 0 -1.11 0l-1.445.962v-13.132h14zm6-15.465a1 1 0 0 1 -1 1h-24a1 1 0 0 1 -1-1v-19.184a2.966 2.966 0 0 0 1 .184h24a2.966 2.966 0 0 0 1-.184zm16-5a1 1 0 0 1 -1 1h-9v-32h9a1 1 0 0 1 1 1z"/><path d="m48 9a2.992 2.992 0 0 0 -2.592 4.5 3 3 0 1 0 5.184 0 2.992 2.992 0 0 0 -2.592-4.5zm.652 5.253a.988.988 0 0 1 .348.747 1 1 0 0 1 -2 0 .988.988 0 0 1 .348-.747 1 1 0 0 0 0-1.506.988.988 0 0 1 -.348-.747 1 1 0 0 1 2 0 .988.988 0 0 1 -.348.747 1 1 0 0 0 0 1.506z"/><path d="m45 33h2v4h-2z"/><path d="m49 30h2v7h-2z"/></svg>