<svg id="Capa_1" enable-background="new 0 0 512 512" height="50" viewBox="0 0 512 512" width="50"
     xmlns="http://www.w3.org/2000/svg">
  <g>
    <path d="m512 186.95v276.19h-512v-276.19l256-14z" fill="#e6f6ff"/>
    <path d="m512 186.95v276.19h-256v-290.19z" fill="#bee3ed"/>
    <path d="m0 48.86h512v138.09h-512z" fill="#48578b"/>
    <path d="m256 48.86h256v138.09h-256z" fill="#2a396c"/>
    <path d="m65 102.909h30v30h-30z" fill="#fd7b51"/>
    <path d="m130 102.909h30v30h-30z" fill="#6fdd28"/>
    <path d="m222.02 102.91h224.98v30h-224.98z" fill="#62739a"/>
    <path d="m256 102.91h191v30h-191z" fill="#48578b"/>
    <g fill="#1cace7">
      <path d="m287.5 245.045h160v30h-160z"/>
      <path d="m287.5 375.045h160v30h-160z"/>
      <path d="m287.5 310.045h160v30h-160z"/>
    </g>
    <path d="m224.5 405.045h-160v-15c0-44.112 35.888-80 80-80s80 35.888 80 80z" fill="#fd7b51"/>
    <path
      d="m144.5 340.045c-26.191 0-47.5-21.309-47.5-47.5s21.309-47.5 47.5-47.5 47.5 21.309 47.5 47.5-21.309 47.5-47.5 47.5z"
      fill="#fed9b6"/>
  </g>
</svg>
