<?xml version="1.0"?>
<svg xmlns="http://www.w3.org/2000/svg" xmlns:xlink="http://www.w3.org/1999/xlink" xmlns:svgjs="http://svgjs.com/svgjs" version="1.1" width="512" height="512" x="0" y="0" viewBox="0 0 64 64" style="enable-background:new 0 0 512 512" xml:space="preserve" class=""><g transform="matrix(0.9999999999999999,0,0,0.9999999999999999,-1.4210854715202004e-14,-7.105427357601002e-15)"><g xmlns="http://www.w3.org/2000/svg" id="bank-money-protection-security-protect"><path d="m46 31h6v16h-6z" fill="#3c9238" data-original="#c0ab91" style="" class=""/><path d="m61 23h-58l29-20z" fill="#429c5c" data-original="#a78966" style="" class=""/><path d="m61 23h-4l-27-18.62 2-1.38z" fill="#168e16" data-original="#806749" style="" class=""/><path d="m59 57v4h-54v-4a2.006 2.006 0 0 1 2-2h50a2.006 2.006 0 0 1 2 2z" fill="#2f7420" data-original="#898890" style="" class=""/><path d="m57 53v2h-50v-2a2.006 2.006 0 0 1 2-2h46a2.006 2.006 0 0 1 2 2z" fill="#788e80" data-original="#c6c5ca" style="" class=""/><path d="m57 23v2a2.006 2.006 0 0 1 -2 2h-46a2.006 2.006 0 0 1 -2-2v-2z" fill="#788e80" data-original="#c6c5ca" style="" class=""/><g fill="#a78966"><path d="m54 49v2h-10v-2a2.006 2.006 0 0 1 2-2h6a2.006 2.006 0 0 1 2 2z" fill="#429c5c" data-original="#a78966" style="" class=""/><path d="m54 27v2a2.006 2.006 0 0 1 -2 2h-6a2.006 2.006 0 0 1 -2-2v-2z" fill="#429c5c" data-original="#a78966" style="" class=""/><path d="m49 31h3v16h-3z" fill="#429c5c" data-original="#a78966" style="" class=""/></g><path d="m59 57v4h-4v-4a2.006 2.006 0 0 0 -2-2h4a2.006 2.006 0 0 1 2 2z" fill="#437448" data-original="#787680" style="" class=""/><path d="m57 53v2h-4v-2a2.006 2.006 0 0 0 -2-2h4a2.006 2.006 0 0 1 2 2z" fill="#577260" data-original="#acabb1" style="" class=""/><path d="m57 23v2a2.006 2.006 0 0 1 -2 2h-4a2.006 2.006 0 0 0 2-2v-2z" fill="#577260" data-original="#acabb1" style="" class=""/><path d="m54 49v2h-4v-2a2.006 2.006 0 0 0 -2-2h4a2.006 2.006 0 0 1 2 2z" fill="#558864" data-original="#957856" style="" class=""/><path d="m54 27v2a2.006 2.006 0 0 1 -2 2h-4a2.006 2.006 0 0 0 2-2v-2z" fill="#558864" data-original="#957856" style="" class=""/><path d="m46 31v16a2.006 2.006 0 0 0 -2 2v2h-24v-2a2.006 2.006 0 0 0 -2-2v-16a2.006 2.006 0 0 0 2-2v-2h24v2a2.006 2.006 0 0 0 2 2z" fill="#788e80" data-original="#c6c5ca" style="" class=""/><path d="m39 34v3.51a5.993 5.993 0 0 1 -1.76 4.25l-5.24 5.24-5.24-5.24a5.993 5.993 0 0 1 -1.76-4.25v-3.51l7-3z" fill="#ffde55" data-original="#ffde55" style="" class=""/><path d="m39 34v3.51a5.993 5.993 0 0 1 -1.76 4.25l-5.24 5.24-2-2 3.24-3.24a5.993 5.993 0 0 0 1.76-4.25v-3.51l-5-2.14 2-.86z" fill="#ebbf00" data-original="#ebbf00" style="" class=""/><path d="m20 49v2h-10v-2a2.006 2.006 0 0 1 2-2h6a2.006 2.006 0 0 1 2 2z" fill="#429c5c" data-original="#a78966" style="" class=""/><path d="m20 27v2a2.006 2.006 0 0 1 -2 2h-6a2.006 2.006 0 0 1 -2-2v-2z" fill="#429c5c" data-original="#a78966" style="" class=""/><path d="m12 31h6v16h-6z" fill="#3c9238" data-original="#c0ab91" style="" class=""/><path d="m15 31h3v16h-3z" fill="#429c5c" data-original="#a78966" style="" class=""/><path d="m20 49v2h-4v-2a2.006 2.006 0 0 0 -2-2h4a2.006 2.006 0 0 1 2 2z" fill="#558864" data-original="#957856" style="" class=""/><path d="m20 27v2a2.006 2.006 0 0 1 -2 2h-4a2.006 2.006 0 0 0 2-2v-2z" fill="#558864" data-original="#957856" style="" class=""/><path d="m61.57 22.18-29-20a.993.993 0 0 0 -1.14 0l-29 20a1 1 0 0 0 .57 1.82h3v1a3.009 3.009 0 0 0 3 3v1a3.01 3.01 0 0 0 2 2.82v14.36a3.01 3.01 0 0 0 -2 2.82v1a3.009 3.009 0 0 0 -3 3v1.18a3.01 3.01 0 0 0 -2 2.82v4a1 1 0 0 0 1 1h54a1 1 0 0 0 1-1v-4a3.01 3.01 0 0 0 -2-2.82v-1.18a3.009 3.009 0 0 0 -3-3v-1a3.01 3.01 0 0 0 -2-2.82v-14.36a3.01 3.01 0 0 0 2-2.82v-1a3.009 3.009 0 0 0 3-3v-1h3a1 1 0 0 0 .57-1.82zm-50.57 26.82a1 1 0 0 1 1-1h6a1 1 0 0 1 1 1v1h-8zm34-17.18v14.36a3.01 3.01 0 0 0 -2 2.82v1h-22v-1a3.01 3.01 0 0 0 -2-2.82v-14.36a3.01 3.01 0 0 0 2-2.82v-1h22v1a3.01 3.01 0 0 0 2 2.82zm7 16.18a1 1 0 0 1 1 1v1h-8v-1a1 1 0 0 1 1-1zm-5-2v-14h4v14zm-28-17a1 1 0 0 1 -1 1h-6a1 1 0 0 1 -1-1v-1h8zm-2 3v14h-4v-14zm41 25v3h-52v-3a1 1 0 0 1 1-1h50a1 1 0 0 1 1 1zm-3-5a1 1 0 0 1 1 1v1h-48v-1a1 1 0 0 1 1-1zm-2-23a1 1 0 0 1 -1 1h-6a1 1 0 0 1 -1-1v-1h8zm3-4a1 1 0 0 1 -1 1h-46a1 1 0 0 1 -1-1v-1h48zm-49.79-3 25.79-17.79 25.79 17.79z" fill="#060606" data-original="#000000" style="" class=""/><path d="m32 13a1 1 0 1 1 1-1h2a3 3 0 0 0 -2-2.816v-1.184h-2v1.184a2.993 2.993 0 0 0 1 5.816 1 1 0 1 1 -1 1h-2a3 3 0 0 0 2 2.816v1.184h2v-1.184a2.993 2.993 0 0 0 -1-5.816z" fill="#060606" data-original="#000000" style="" class=""/><path d="m39.394 33.081-7-3a1.007 1.007 0 0 0 -.788 0l-7 3a1 1 0 0 0 -.606.919v3.515a6.955 6.955 0 0 0 2.051 4.95l5.242 5.242a1 1 0 0 0 1.414 0l5.242-5.242a6.955 6.955 0 0 0 2.051-4.95v-3.515a1 1 0 0 0 -.606-.919zm-1.394 4.434a4.971 4.971 0 0 1 -1.465 3.536l-4.535 4.535-4.535-4.535a4.971 4.971 0 0 1 -1.465-3.536v-2.856l6-2.571 6 2.571z" fill="#060606" data-original="#000000" style="" class=""/><path d="m30.707 37.293-1.414 1.414 2 2a1 1 0 0 0 1.414 0l4-4-1.414-1.414-3.293 3.293z" fill="#060606" data-original="#000000" style="" class=""/></g></g></svg>
