<?xml version="1.0"?>
<svg xmlns="http://www.w3.org/2000/svg" xmlns:xlink="http://www.w3.org/1999/xlink" xmlns:svgjs="http://svgjs.com/svgjs" version="1.1" width="512" height="512" x="0" y="0" viewBox="0 0 32 32" style="enable-background:new 0 0 512 512" xml:space="preserve" class=""><g><g xmlns="http://www.w3.org/2000/svg" id="BG"><path d="m26 32h-20c-3.314 0-6-2.686-6-6v-20c0-3.314 2.686-6 6-6h20c3.314 0 6 2.686 6 6v20c0 3.314-2.686 6-6 6z" fill="#d4ffd8" data-original="#fff9dd" style="" class=""/></g><g xmlns="http://www.w3.org/2000/svg" id="solid"><g><path d="m24 9.833c0-1.011-.822-1.833-1.833-1.833h-12.334c-1.011 0-1.833.822-1.833 1.833v7c0 1.011.822 1.833 1.833 1.833h5.353c.586-2.11 2.519-3.666 4.814-3.666 1.636 0 3.087.794 4 2.013zm-11.833 1.167h-1.667c-.276 0-.5-.224-.5-.5s.224-.5.5-.5h1.667c.276 0 .5.224.5.5s-.224.5-.5.5zm3.833 4.333c-1.103 0-2-.897-2-2s.897-2 2-2 2 .897 2 2-.897 2-2 2z" fill="#53a816" data-original="#ffd200" style="" class=""/></g><g><path d="m20 16c-2.206 0-4 1.794-4 4s1.794 4 4 4 4-1.794 4-4-1.794-4-4-4zm1.833 4.667h-1.167v1.167c0 .368-.299.667-.667.667s-.667-.299-.667-.667v-1.167h-1.167c-.368 0-.667-.299-.667-.667s.299-.667.667-.667h1.167v-1.167c0-.368.299-.667.667-.667s.667.299.667.667v1.167h1.167c.368 0 .667.299.667.667s-.298.667-.667.667z" fill="#2e8c20" data-original="#ffe777" style="" class=""/></g></g></g></svg>
