<svg id="Capa_1" enable-background="new 0 0 512 512" height="14" viewBox="0 0 512 512" width="14" xmlns="http://www.w3.org/2000/svg"><g><path d="m0 0h406.333v90.667h-406.333z"/><path d="m406.333 240.666v-44.999h-406.333v120.667h284.679c22.182-44.793 68.376-75.668 121.654-75.668z"/><path d="m278.347 421.333h-278.347v90.667h406.333c-59.039 0-109.382-37.912-127.986-90.667z"/><path d="m60 113.167c-16.569 0-30 13.431-30 30s13.431 30 30 30h286.333c16.569 0 30-13.431 30-30s-13.431-30-30-30z"/><path d="m275.941 338.833h-215.941c-16.569 0-30 13.431-30 30s13.431 30 30 30h212.542c-1.227-7.321-1.876-14.836-1.876-22.5 0-13.004 1.843-25.585 5.275-37.5z"/><path d="m406.333 270.666c-58.265 0-105.667 47.402-105.667 105.667s47.402 105.667 105.667 105.667 105.667-47.402 105.667-105.667-47.402-105.667-105.667-105.667zm60.334 120.667h-45.167v45.333h-30v-45.333h-45.167v-30h45.167v-45h30v45h45.167z"/></g></svg>
