<svg id="Layer_5" enable-background="new 0 0 64 64" height="50" viewBox="0 0 64 64" width="50" xmlns="http://www.w3.org/2000/svg"><g><g><g><path d="m32 14v3c-10.49 0-19 8.51-19 19h-5-1v-4l2.5-.78c.59-2.81 1.7-5.42 3.21-7.74l-1.22-2.33 5.66-5.66 2.33 1.22c1.74-1.13 3.65-2.04 5.67-2.67v-.04z" fill="#fcd770"/></g><g><path d="m57 32v4h-1-5c0-10.49-8.51-19-19-19v-3-2h4.31l.47 1.5c2.81.59 5.42 1.7 7.74 3.21l2.33-1.22 5.66 5.66-1.22 2.33c1.51 2.32 2.62 4.93 3.21 7.74z" fill="#fcd770"/></g><g><path d="m56 36h-48c0 3.31-2.69 6-6 6v14c3.31 0 6 2.69 6 6h48c0-3.31 2.69-6 6-6v-14c-3.31 0-6-2.69-6-6z" fill="#b4dd7f"/></g><g><path d="m8 62h-6v-6c3.31 0 6 2.69 6 6z" fill="#a0d468"/></g><g><path d="m7 36h1c0 3.31-2.69 6-6 6v-6z" fill="#a0d468"/></g><g><path d="m57 36h5v6c-3.31 0-6-2.69-6-6z" fill="#a0d468"/></g><g><path d="m62 56v6h-6c0-3.31 2.69-6 6-6z" fill="#a0d468"/></g><g><circle cx="13" cy="49" fill="#fcd770" r="2"/></g><g><circle cx="51" cy="49" fill="#fcd770" r="2"/></g><g><path d="m37.56 36 3.12 4.02c1.5 1.93 2.32 4.31 2.32 6.75v.23c0 3.04-1.23 5.79-3.22 7.78s-4.74 3.22-7.78 3.22c-6.08 0-11-4.92-11-11v-.23c0-2.44.82-4.82 2.32-6.75l3.12-4.02 1.56-2h8z" fill="#cf9e76"/></g><g><path d="m30.08 26c.23-.95.97-1.69 1.92-1.92.2-.05.41-.08.63-.08h2.74c.73 0 1.38.3 1.86.77.47.48.77 1.13.77 1.86 0 .25-.03.49-.1.72l-1.9 6.65h-8l-3.17-3.17c-.53-.53-.83-1.25-.83-2 0-1.56 1.27-2.83 2.83-2.83z" fill="#d3a06c"/></g><g><path d="m32 14h-6.85-1.15c-2.76 0-5.26-1.12-7.07-2.93s-2.93-4.31-2.93-7.07h8c2.76 0 5.26 1.12 7.07 2.93s2.93 4.31 2.93 7.07z" fill="#a0d468"/></g><g><path d="m42 2h8c0 2.76-1.12 5.26-2.93 7.07s-4.31 2.93-7.07 2.93h-3.69-4.31c0-2.76 1.12-5.26 2.93-7.07s4.31-2.93 7.07-2.93z" fill="#a0d468"/></g></g><g><path d="m31 50.855v2.145h2v-2.145c1.155-.366 2-1.435 2-2.709 0-1.088-.604-2.066-1.578-2.553l-1.949-.975c-.292-.145-.473-.438-.473-.764 0-.471.384-.854.854-.854h.291c.471 0 .855.383.855.854v.146h2v-.146c0-1.274-.845-2.343-2-2.709v-2.145h-2v2.145c-1.155.366-2 1.435-2 2.709 0 1.088.604 2.066 1.578 2.553l1.949.975c.292.145.473.438.473.764 0 .471-.384.854-.854.854h-.291c-.471 0-.855-.383-.855-.854v-1.146h-2v1.146c0 1.274.845 2.343 2 2.709z"/><path d="m58 35v-3.734l-2.652-.833c-.588-2.476-1.563-4.826-2.905-7.001l1.29-2.469-6.695-6.695-2.469 1.289c-1.807-1.115-3.741-1.96-5.761-2.557h1.192c6.065 0 11-4.935 11-11v-1h-9c-4.867 0-9 3.181-10.445 7.571-1.896-3.322-5.465-5.571-9.555-5.571h-9v1c0 5.075 3.459 9.346 8.139 10.609-.58.295-1.152.605-1.708.948l-2.469-1.289-6.695 6.695 1.29 2.469c-1.342 2.175-2.317 4.525-2.905 7.001l-2.652.833v3.734h-5v28h62v-28zm3 5.899c-1.956-.399-3.5-1.943-3.899-3.899h3.899zm-5.92 20.101h-46.16c-.441-3.059-2.861-5.479-5.92-5.92v-12.16c3.059-.441 5.479-2.861 5.92-5.92h15.48l-1.872 2.407c-1.631 2.095-2.528 4.712-2.528 7.367v.226c0 6.617 5.383 12 12 12s12-5.383 12-12v-.226c0-2.655-.897-5.272-2.528-7.367l-1.872-2.407h15.48c.441 3.059 2.861 5.479 5.92 5.92v12.16c-3.059.441-5.479 2.861-5.92 5.92zm-26.591-26h7.021l4.383 5.635c1.359 1.746 2.107 3.927 2.107 6.139v.226c0 5.514-4.486 10-10 10s-10-4.486-10-10v-.226c0-2.213.748-4.393 2.106-6.14zm2.511-6v-2.369c0-.899.732-1.631 1.632-1.631h2.736c.9 0 1.632.732 1.632 1.631 0 .151-.021.302-.063.448l-1.692 5.921h-6.831l-2.879-2.878c-.345-.346-.535-.805-.535-1.293 0-1.009.82-1.829 1.828-1.829h2.172v2zm6.101 4.787 1.758-6.157c.094-.325.141-.661.141-.999 0-2.002-1.629-3.631-3.632-3.631h-2.368v-4.949c9.126.505 16.444 7.823 16.949 16.949h-11.905zm-6.101-10.382c-.688.35-1.245.907-1.595 1.595h-2.577c-2.11 0-3.828 1.717-3.828 3.829 0 1.022.398 1.983 1.121 2.707l2.548 2.547-.714.917h-11.904c.505-9.126 7.823-16.444 16.949-16.949zm5.006-9.046.572.121c2.636.558 5.125 1.59 7.397 3.068l.489.319 2.197-1.147 4.617 4.619-1.147 2.196.319.49c1.479 2.271 2.511 4.76 3.068 7.396l.121.572 2.361.741v2.266h-4.051c-.509-10.229-8.72-18.44-18.949-18.949v-1.051-1-1h2.579zm5.994-11.359h6.944c-.499 4.494-4.319 8-8.944 8h-6.944c.499-4.494 4.319-8 8.944-8zm-26.944 2h6.944c4.625 0 8.445 3.506 8.944 8h-6.944c-4.625 0-8.445-3.506-8.944-8zm-7.056 27.734 2.359-.74.121-.572c.558-2.636 1.59-5.125 3.068-7.396l.319-.49-1.147-2.196 4.617-4.619 2.196 1.147.49-.318c1.687-1.097 3.508-1.954 5.412-2.549h5.565v1.051c-10.229.508-18.44 8.719-18.949 18.948h-4.051zm-1.101 4.266c-.399 1.956-1.943 3.5-3.899 3.899v-3.899zm-3.899 20.101c1.956.399 3.5 1.943 3.899 3.899h-3.899zm54.101 3.899c.399-1.956 1.943-3.5 3.899-3.899v3.899z"/><path d="m51 46c-1.654 0-3 1.346-3 3s1.346 3 3 3 3-1.346 3-3-1.346-3-3-3zm0 4c-.552 0-1-.449-1-1s.448-1 1-1 1 .449 1 1-.448 1-1 1z"/><path d="m13 46c-1.654 0-3 1.346-3 3s1.346 3 3 3 3-1.346 3-3-1.346-3-3-3zm0 4c-.552 0-1-.449-1-1s.448-1 1-1 1 .449 1 1-.448 1-1 1z"/></g></g></svg>
