<?xml version="1.0"?>
<svg xmlns="http://www.w3.org/2000/svg" xmlns:xlink="http://www.w3.org/1999/xlink" xmlns:svgjs="http://svgjs.com/svgjs"
     version="1.1" width="40" height="40" x="0" y="0" viewBox="0 0 24 24" style="enable-background:new 0 0 512 512"
     xml:space="preserve" class=""><rect width="24" height="24" rx="20" ry="20" fill="#dd8a1f" shape="rounded"/>
  <g transform="matrix(0.7,0,0,0.7,3.6000000000000014,3.6000000000000014)"><path xmlns="http://www.w3.org/2000/svg" d="m17.5 24c-3.584 0-6.5-2.916-6.5-6.5s2.916-6.5 6.5-6.5 6.5 2.916 6.5 6.5-2.916 6.5-6.5 6.5zm0-12c-3.033 0-5.5 2.467-5.5 5.5s2.467 5.5 5.5 5.5 5.5-2.467 5.5-5.5-2.467-5.5-5.5-5.5z" fill="#fff5f5" data-original="#000000" style=""/>
    <path xmlns="http://www.w3.org/2000/svg"
          d="m20 20.5c-.109 0-.22-.036-.312-.109l-2.5-2c-.119-.096-.188-.239-.188-.391v-3.5c0-.276.224-.5.5-.5s.5.224.5.5v3.26l2.313 1.85c.215.173.25.487.078.703-.099.123-.245.187-.391.187z"
          fill="#fff5f5" data-original="#000000" style=""/>
    <path xmlns="http://www.w3.org/2000/svg"
          d="m8.5 21h-6c-1.378 0-2.5-1.122-2.5-2.5v-16c0-1.378 1.122-2.5 2.5-2.5h11c1.378 0 2.5 1.122 2.5 2.5v6c0 .276-.224.5-.5.5s-.5-.224-.5-.5v-6c0-.827-.673-1.5-1.5-1.5h-11c-.827 0-1.5.673-1.5 1.5v16c0 .827.673 1.5 1.5 1.5h6c.276 0 .5.224.5.5s-.224.5-.5.5z"
          fill="#fff5f5" data-original="#000000" style=""/>
    <path xmlns="http://www.w3.org/2000/svg"
          d="m3.5 13c-.128 0-.256-.049-.354-.146-.195-.195-.195-.512 0-.707l2.5-2.5c.152-.153.384-.19.577-.094l1.678.839 3.245-3.245c.195-.195.512-.195.707 0s.195.512 0 .707l-3.5 3.5c-.153.152-.385.19-.577.094l-1.678-.839-2.245 2.245c-.097.097-.225.146-.353.146z"
          fill="#fff5f5" data-original="#000000" style=""/>
    <path xmlns="http://www.w3.org/2000/svg"
          d="m11.5 11c-.276 0-.5-.224-.5-.5v-2.5h-2.5c-.276 0-.5-.224-.5-.5s.224-.5.5-.5h3c.276 0 .5.224.5.5v3c0 .276-.224.5-.5.5z"
          fill="#fff5f5" data-original="#000000" style=""/></g></svg>
