<svg width="696.999951171875px" height="124.439990234375px" xmlns="http://www.w3.org/2000/svg" viewBox="-98.49997558593748 12.780004882812499 696.999951171875 124.439990234375" style="background:#596886" preserveAspectRatio="xMidYMid"><defs><filter id="editing-hover" x="-100%" y="-100%" width="300%" height="300%"><feFlood flood-color="#052b4a" result="flood"></feFlood><feComposite operator="in" in2="SourceAlpha" in="flood" result="shadow"></feComposite><feOffset dx="-4" dy="-4" in="SourceGraphic" result="offset-1"></feOffset><feOffset dx="4" dy="4" in="shadow" result="offset-2"></feOffset><feMerge><feMergeNode in="offset-2"></feMergeNode><feMergeNode in="offset-1"></feMergeNode></feMerge></filter></defs><g filter="url(#editing-hover)"><g transform="translate(2.83498215675354, 97.46500015258789)"><path d="M42.62-26.56L42.62-26.56L42.62-26.56Q42.62 0.70 13.06 0.70L13.06 0.70L13.06 0.70Q8.32 0.70 0.51-0.45L0.51-0.45L7.68-38.27L7.68-38.27Q8.19-40.83 8.51-42.30L8.51-42.30L8.51-42.30Q18.24-43.01 22.56-43.01L22.56-43.01L22.56-43.01Q26.88-43.01 30.85-42.11L30.85-42.11L30.85-42.11Q34.82-41.22 37.44-39.23L37.44-39.23L37.44-39.23Q42.62-35.33 42.62-26.56ZM29.44-28.93L29.44-28.93L29.44-28.93Q29.44-38.46 22.59-38.46L22.59-38.46L21.95-38.46L21.95-38.46Q21.63-38.46 21.31-38.40L21.31-38.40L14.72-4.03L14.72-4.03Q14.98-3.90 15.23-3.90L15.23-3.90L15.74-3.90L15.74-3.90Q18.11-3.90 20.58-5.38L20.58-5.38L20.58-5.38Q23.04-6.85 24.96-9.86L24.96-9.86L24.96-9.86Q29.44-16.83 29.44-28.93ZM46.85-15.62L46.85-15.62L46.85-15.62Q46.85-27.71 53.12-35.33L53.12-35.33L53.12-35.33Q59.78-43.58 71.36-43.58L71.36-43.58L71.36-43.58Q79.74-43.58 83.97-39.52L83.97-39.52L83.97-39.52Q88.19-35.46 88.19-26.88L88.19-26.88L88.19-26.88Q88.19-13.82 81.54-6.21L81.54-6.21L81.54-6.21Q74.94 1.28 63.87 1.28L63.87 1.28L63.87 1.28Q55.23 1.28 51.04-3.04L51.04-3.04L51.04-3.04Q46.85-7.36 46.85-15.62ZM63.68-28.86L63.68-28.86L63.68-28.86Q60.80-17.34 60.80-8.26L60.80-8.26L60.80-8.26Q60.80-6.08 61.54-4.67L61.54-4.67L61.54-4.67Q62.27-3.26 64.22-3.26L64.22-3.26L64.22-3.26Q66.18-3.26 67.39-4.19L67.39-4.19L67.39-4.19Q68.61-5.12 69.57-7.23L69.57-7.23L69.57-7.23Q71.10-10.69 72.54-18.02L72.54-18.02L72.54-18.02Q73.98-25.34 74.11-28.38L74.11-28.38L74.11-28.38Q74.24-31.42 74.24-33.73L74.24-33.73L74.24-33.73Q74.24-36.03 73.54-37.50L73.54-37.50L73.54-37.50Q72.83-38.98 70.94-38.98L70.94-38.98L70.94-38.98Q69.06-38.98 67.78-37.82L67.78-37.82L67.78-37.82Q65.41-35.65 63.68-28.86ZM96.77 0L89.41 0L100.99-42.24L114.37-42.24L117.31-18.11L129.22-42.24L140.42-42.24L141.57-10.62L141.57-10.62Q141.82-4.35 144.90-2.43L144.90-2.43L144.90-2.43Q144.19-1.15 142.14 0.06L142.14 0.06L142.14 0.06Q140.10 1.28 137.38 1.28L137.38 1.28L137.38 1.28Q134.66 1.28 133.06 0.51L133.06 0.51L133.06 0.51Q131.46-0.26 130.56-1.54L130.56-1.54L130.56-1.54Q128.96-3.84 128.96-8.26L128.96-8.26L128.96-28.03L116.35 0L108.42 0L103.94-28.74L96.77 0ZM174.98-9.86L174.98-9.86L174.98-9.86Q176.19-8.32 176.19-5.82L176.19-5.82L176.19-5.82Q176.19-2.37 173.63-0.54L173.63-0.54L173.63-0.54Q171.07 1.28 167.04 1.28L167.04 1.28L167.04 1.28Q164.74 1.28 161.22 0.77L161.22 0.77L161.22 0.77Q154.30-0.32 152.19-0.32L152.19-0.32L152.19-0.32Q150.08-0.32 149.25-0.22L149.25-0.22L149.25-0.22Q148.42-0.13 147.07 0L147.07 0L154.94-42.24L182.53-42.24L182.53-42.24Q182.53-38.34 180.64-36.29L180.64-36.29L180.64-36.29Q178.75-34.24 175.04-34.24L175.04-34.24L175.04-34.24Q171.33-34.24 167.55-35.97L167.55-35.97L165.57-24.77L176.96-24.77L176.96-24.77Q176.96-21.38 175.30-19.49L175.30-19.49L175.30-19.49Q173.63-17.60 170.85-17.60L170.85-17.60L170.85-17.60Q168.06-17.60 166.34-18.24L166.34-18.24L166.34-18.24Q164.61-18.88 164.42-19.07L164.42-19.07L162.11-6.98L162.11-6.98Q163.65-6.78 166.53-6.78L166.53-6.78L166.53-6.78Q171.46-6.78 174.98-9.86ZM207.04-29.57L207.04-29.57L207.04-29.57Q208.00-31.49 208.00-33.28L208.00-33.28L208.00-33.28Q208.00-35.07 207.81-36.06L207.81-36.06L207.81-36.06Q207.62-37.06 207.17-37.82L207.17-37.82L207.17-37.82Q206.21-39.49 204.29-39.49L204.29-39.49L204.29-39.49Q201.92-39.49 200.00-37.76L200.00-37.76L200.00-37.76Q197.95-35.97 197.95-33.15L197.95-33.15L197.95-33.15Q197.95-31.36 199.20-29.98L199.20-29.98L199.20-29.98Q200.45-28.61 202.37-27.33L202.37-27.33L202.37-27.33Q204.29-26.05 206.46-24.77L206.46-24.77L206.46-24.77Q208.64-23.49 210.56-21.95L210.56-21.95L210.56-21.95Q214.98-18.43 214.98-13.70L214.98-13.70L214.98-13.70Q214.98-10.50 213.28-7.78L213.28-7.78L213.28-7.78Q211.58-5.06 208.77-3.07L208.77-3.07L208.77-3.07Q202.62 1.28 194.50 1.28L194.50 1.28L194.50 1.28Q187.90 1.28 184.51-0.86L184.51-0.86L184.51-0.86Q181.12-3.01 181.12-6.27L181.12-6.27L181.12-6.27Q181.12-12.10 185.66-13.57L185.66-13.57L185.66-13.57Q186.94-14.02 188.90-14.02L188.90-14.02L188.90-14.02Q190.85-14.02 193.09-13.18L193.09-13.18L193.09-13.18Q192.06-10.56 192.06-8.19L192.06-8.19L192.06-8.19Q192.06-3.07 195.71-3.07L195.71-3.07L195.71-3.07Q198.08-3.07 200.03-4.80L200.03-4.80L200.03-4.80Q201.98-6.53 201.98-8.48L201.98-8.48L201.98-8.48Q201.98-10.43 200.74-11.84L200.74-11.84L200.74-11.84Q199.49-13.25 197.63-14.37L197.63-14.37L197.63-14.37Q195.78-15.49 193.63-16.58L193.63-16.58L193.63-16.58Q191.49-17.66 189.63-19.20L189.63-19.20L189.63-19.20Q185.28-22.72 185.28-28.35L185.28-28.35L185.28-28.35Q185.28-32 187.07-34.85L187.07-34.85L187.07-34.85Q188.86-37.70 191.74-39.62L191.74-39.62L191.74-39.62Q197.50-43.52 204.58-43.52L204.58-43.52L204.58-43.52Q211.65-43.52 215.07-41.41L215.07-41.41L215.07-41.41Q218.50-39.30 218.50-35.71L218.50-35.71L218.50-35.71Q218.50-32.58 216.06-30.59L216.06-30.59L216.06-30.59Q213.95-28.93 211.39-28.93L211.39-28.93L211.39-28.93Q208.83-28.93 207.04-29.57ZM224.96-31.17L224.96-31.17L224.96-31.17Q222.78-32.83 222.78-36.38L222.78-36.38L222.78-36.38Q222.78-39.94 225.12-41.79L225.12-41.79L225.12-41.79Q227.46-43.65 231.49-43.65L231.49-43.65L231.49-43.65Q234.05-43.65 240.13-42.75L240.13-42.75L244.48-42.11L244.48-42.11Q246.66-41.86 248.93-41.86L248.93-41.86L248.93-41.86Q251.20-41.86 252.74-42.82L252.74-42.82L252.74-42.82Q255.04-40.77 255.04-37.82L255.04-37.82L255.04-37.82Q255.04-34.88 252.42-32.77L252.42-32.77L252.42-32.77Q249.73-30.53 246.27-30.53L246.27-30.53L246.27-30.53Q244.61-30.53 241.92-30.98L241.92-30.98L241.92-30.98Q238.78-21.12 238.78-14.27L238.78-14.27L238.78-14.27Q238.78-7.42 242.24-3.84L242.24-3.84L242.24-3.84Q240.64-0.96 238.27 0.16L238.27 0.16L238.27 0.16Q235.90 1.28 232.35 1.28L232.35 1.28L232.35 1.28Q228.80 1.28 226.59-0.67L226.59-0.67L226.59-0.67Q224.38-2.62 224.38-6.66L224.38-6.66L224.38-6.66Q224.38-11.33 226.94-19.01L226.94-19.01L226.94-19.01Q229.50-26.62 233.34-32.45L233.34-32.45L233.34-32.45Q231.49-32.64 229.57-32.64L229.57-32.64L229.57-32.64Q225.60-32.64 224.96-31.17ZM266.24 0L252.29 0L260.42-42.24L274.50-42.24L266.24 0ZM309.31-13.25L309.31-13.25L309.31-13.25Q310.98-12.03 310.98-9.44L310.98-9.44L310.98-9.44Q310.98-6.85 309.86-5.02L309.86-5.02L309.86-5.02Q308.74-3.20 306.56-1.79L306.56-1.79L306.56-1.79Q301.89 1.22 293.73 1.22L293.73 1.22L293.73 1.22Q285.57 1.22 281.12-3.04L281.12-3.04L281.12-3.04Q276.67-7.30 276.67-14.85L276.67-14.85L276.67-14.85Q276.67-25.54 282.24-33.66L282.24-33.66L282.24-33.66Q286.46-39.68 294.02-42.24L294.02-42.24L294.02-42.24Q297.92-43.52 301.76-43.52L301.76-43.52L301.76-43.52Q305.60-43.52 307.97-43.01L307.97-43.01L307.97-43.01Q310.34-42.50 312.13-41.47L312.13-41.47L312.13-41.47Q316.03-39.23 316.03-35.65L316.03-35.65L316.03-35.65Q316.03-32.38 312.96-29.95L312.96-29.95L312.96-29.95Q310.14-27.78 307.84-27.78L307.84-27.78L307.84-27.78Q305.54-27.78 304.58-28.10L304.58-28.10L304.58-28.10Q304.83-30.40 304.83-31.90L304.83-31.90L304.83-31.90Q304.83-33.41 304.77-34.50L304.77-34.50L304.77-34.50Q304.70-35.58 304.38-36.61L304.38-36.61L304.38-36.61Q303.74-38.98 301.79-38.98L301.79-38.98L301.79-38.98Q299.84-38.98 297.89-37.15L297.89-37.15L297.89-37.15Q295.94-35.33 294.27-32.26L294.27-32.26L294.27-32.26Q290.50-25.28 290.50-17.02L290.50-17.02L290.50-17.02Q290.50-13.06 292.74-10.78L292.74-10.78L292.74-10.78Q294.98-8.51 299.78-8.51L299.78-8.51L299.78-8.51Q303.36-8.51 306.75-10.88L306.75-10.88L306.75-10.88Q308.22-11.90 309.31-13.25ZM362.88-13.25L362.88-13.25L362.88-13.25Q364.54-12.03 364.54-9.44L364.54-9.44L364.54-9.44Q364.54-6.85 363.42-5.02L363.42-5.02L363.42-5.02Q362.30-3.20 360.13-1.79L360.13-1.79L360.13-1.79Q355.46 1.22 347.30 1.22L347.30 1.22L347.30 1.22Q339.14 1.22 334.69-3.04L334.69-3.04L334.69-3.04Q330.24-7.30 330.24-14.85L330.24-14.85L330.24-14.85Q330.24-25.54 335.81-33.66L335.81-33.66L335.81-33.66Q340.03-39.68 347.58-42.24L347.58-42.24L347.58-42.24Q351.49-43.52 355.33-43.52L355.33-43.52L355.33-43.52Q359.17-43.52 361.54-43.01L361.54-43.01L361.54-43.01Q363.90-42.50 365.70-41.47L365.70-41.47L365.70-41.47Q369.60-39.23 369.60-35.65L369.60-35.65L369.60-35.65Q369.60-32.38 366.53-29.95L366.53-29.95L366.53-29.95Q363.71-27.78 361.41-27.78L361.41-27.78L361.41-27.78Q359.10-27.78 358.14-28.10L358.14-28.10L358.14-28.10Q358.40-30.40 358.40-31.90L358.40-31.90L358.40-31.90Q358.40-33.41 358.34-34.50L358.34-34.50L358.34-34.50Q358.27-35.58 357.95-36.61L357.95-36.61L357.95-36.61Q357.31-38.98 355.36-38.98L355.36-38.98L355.36-38.98Q353.41-38.98 351.46-37.15L351.46-37.15L351.46-37.15Q349.50-35.33 347.84-32.26L347.84-32.26L347.84-32.26Q344.06-25.28 344.06-17.02L344.06-17.02L344.06-17.02Q344.06-13.06 346.30-10.78L346.30-10.78L346.30-10.78Q348.54-8.51 353.34-8.51L353.34-8.51L353.34-8.51Q356.93-8.51 360.32-10.88L360.32-10.88L360.32-10.88Q361.79-11.90 362.88-13.25ZM397.95 1.28L397.95 1.28L397.95 1.28Q389.76 1.28 388.99-10.37L388.99-10.37L377.98-10.37L377.98-10.37Q376.70-7.42 375.81-4.86L375.81-4.86L374.14 0L365.18 0L385.34-42.24L399.10-42.24L401.79-11.14L401.79-11.14Q402.43-4.42 404.99-2.43L404.99-2.43L404.99-2.43Q403.14 1.28 397.95 1.28ZM383.49-23.17L379.97-15.04L388.80-15.04L388.03-31.49L388.03-33.22L383.49-23.17ZM421.82 0L408.13 0L415.94-42.05L415.94-42.05Q422.27-42.75 431.52-42.75L431.52-42.75L431.52-42.75Q440.77-42.75 445.06-40.06L445.06-40.06L445.06-40.06Q449.34-37.38 449.34-31.97L449.34-31.97L449.34-31.97Q449.34-26.56 446.56-23.17L446.56-23.17L446.56-23.17Q443.78-19.78 438.98-18.69L438.98-18.69L438.98-18.69Q440.06-13.38 442.56-9.09L442.56-9.09L442.56-9.09Q444.86-5.06 447.55-3.78L447.55-3.78L447.55-3.78Q446.59-1.09 444.64 0.10L444.64 0.10L444.64 0.10Q442.69 1.28 439.90 1.28L439.90 1.28L439.90 1.28Q437.12 1.28 434.94-0.35L434.94-0.35L434.94-0.35Q432.77-1.98 431.04-4.99L431.04-4.99L431.04-4.99Q427.39-11.52 427.01-21.82L427.01-21.82L427.46-21.82L427.46-21.82Q432.19-21.95 434.56-24.42L434.56-24.42L434.56-24.42Q436.93-26.88 436.93-32.06L436.93-32.06L436.93-32.06Q436.93-38.53 431.49-38.78L431.49-38.78L430.08-38.78L430.08-38.78Q429.50-38.78 429.18-38.72L429.18-38.72L421.82 0ZM493.82-26.56L493.82-26.56L493.82-26.56Q493.82 0.70 464.26 0.70L464.26 0.70L464.26 0.70Q459.52 0.70 451.71-0.45L451.71-0.45L458.88-38.27L458.88-38.27Q459.39-40.83 459.71-42.30L459.71-42.30L459.71-42.30Q469.44-43.01 473.76-43.01L473.76-43.01L473.76-43.01Q478.08-43.01 482.05-42.11L482.05-42.11L482.05-42.11Q486.02-41.22 488.64-39.23L488.64-39.23L488.64-39.23Q493.82-35.33 493.82-26.56ZM480.64-28.93L480.64-28.93L480.64-28.93Q480.64-38.46 473.79-38.46L473.79-38.46L473.15-38.46L473.15-38.46Q472.83-38.46 472.51-38.40L472.51-38.40L465.92-4.03L465.92-4.03Q466.18-3.90 466.43-3.90L466.43-3.90L466.94-3.90L466.94-3.90Q469.31-3.90 471.78-5.38L471.78-5.38L471.78-5.38Q474.24-6.85 476.16-9.86L476.16-9.86L476.16-9.86Q480.64-16.83 480.64-28.93Z" fill="#ffd5af"></path></g></g><style>text {
  font-size: 64px;
  font-family: Arial Black;
  dominant-baseline: central;
  text-anchor: middle;
}</style></svg>