<svg height="40" viewBox="0 0 512 512.00177" width="40" xmlns="http://www.w3.org/2000/svg">
  <path
    d="m214.675781 85.242188c-7.269531 29.835937-2.3125 56.109374 6.085938 76.746093 5.738281 14.105469 26.550781 10.660157 27.6875-4.527343 3.277343-43.738282 23.597656-105.503907 102.984375-147.460938-29.433594 93.296875 46.789062 97.738281 51.617187 178.835938.085938 1.394531 2.035157 1.640624 2.46875.3125 5.464844-16.8125 22.296875-56.933594 64.34375-83.511719 0 101.363281 32.136719 110.695312 32.136719 165.363281 0 48.777344-21.722656 83.835938-61.085938 113h-236.457031c-39.363281-29.164062-67.789062-79.222656-67.789062-128 0-64.878906 24.242187-106.640625 78.007812-170.757812zm0 0"
    fill="#ff6977"/>
  <path
    d="m416.914062 262h-192c-13.253906 0-24 10.746094-24 24v192c0 13.253906 10.746094 24 24 24h192c13.253907 0 24-10.746094 24-24v-192c0-13.253906-10.746093-24-24-24zm0 0"
    fill="#ffcb7c"/>
  <path
    d="m283.148438 262h75.789062v78.734375l-18.949219-18.949219-18.945312 18.949219-18.949219-18.949219-18.945312 18.949219zm0 0"
    fill="#fff"/>
  <path
    d="m512 271c0-25-6.347656-41.546875-13.066406-59.066406-8.941406-23.296875-19.070313-49.703125-19.070313-106.296875 0-3.644531-1.980469-7-5.171875-8.757813-3.191406-1.761718-7.089844-1.644531-10.167968.304688-28.570313 18.058594-46.214844 42.050781-56.726563 61.578125-6.53125-21.15625-17.847656-36.617188-28.1875-50.75-18.976563-25.9375-33.964844-46.425781-18.640625-95.003907 1.21875-3.867187-.019531-8.089843-3.132812-10.6875-3.113282-2.597656-7.488282-3.058593-11.078126-1.160156-83.15625 43.953125-104.78125 108.851563-108.28125 155.554688-.234374 3.113281-2.484374 3.925781-3.804687 4.132812-1.539063.242188-3.589844-.019531-4.648437-2.628906-9.476563-23.289062-11.371094-47.046875-5.632813-70.609375 1.101563-4.511719-1.054687-9.191406-5.199219-11.289063-4.144531-2.09375-9.191406-1.0625-12.175781 2.5-53.289063 63.546876-80.347656 108.398438-80.347656 177.179688 0 44.984375 23.097656 93.308594 59.5625 126h-71.0625c-5.523438 0-10 4.480469-10 10 0 5.523438 4.476562 10 10 10h75.746093v36h-180.914062c-5.519531 0-10 4.480469-10 10 0 5.523438 4.480469 10 10 10h180.914062v20c0 18.75 15.253907 34 34 34h192c18.75 0 34-15.25 34-34v-89.027344c41.648438-32.246094 61.085938-69.851562 61.085938-117.972656zm-81.085938 207c0 7.71875-6.277343 14-14 14h-192c-7.71875 0-14-6.28125-14-14v-192c0-7.71875 6.28125-14 14-14h48.234376v68.734375c0 4.042969 2.433593 7.691406 6.171874 9.238281 3.738282 1.546875 8.039063.691406 10.898438-2.167968l11.875-11.875 11.875 11.875c3.90625 3.902343 10.238281 3.902343 14.144531 0l11.875-11.875 11.875 11.875c1.914063 1.914062 4.472657 2.929687 7.074219 2.929687 1.289062 0 2.589844-.25 3.824219-.761719 3.738281-1.546875 6.175781-5.195312 6.175781-9.238281v-68.734375h47.976562c7.722657 0 14 6.28125 14 14zm-137.765624-206h55.789062v44.589844l-1.875-1.875c-3.90625-3.902344-10.238281-3.902344-14.144531 0l-11.875 11.875-11.878907-11.875c-1.953124-1.949219-4.511718-2.929688-7.070312-2.929688s-5.117188.980469-7.070312 2.929688l-1.875 1.875zm157.765624 90.808594v-76.808594c0-18.75-15.25-34-34-34h-192c-18.746093 0-34 15.25-34 34v72.761719c-27.347656-28.464844-44.246093-66.898438-44.246093-102.761719 0-53.605469 17.664062-90.691406 54.515625-138.226562.429687 16.105468 3.871094 32.148437 10.3125 47.980468 4.339844 10.667969 14.898437 16.640625 26.277344 14.851563 11.480468-1.804688 19.777343-10.804688 20.648437-22.398438 2.824219-37.722656 19.054687-88.824219 77.785156-127.609375-6.78125 42.699219 10.484375 66.292969 27.261719 89.222656 14.25 19.476563 27.710938 37.871094 29.601562 69.613282.324219 5.394531 4.449219 9.808594 9.8125 10.496094 5.355469.679687 10.472657-2.542969 12.148438-7.6875 4.257812-13.101563 16.566406-43.203126 45.25-67.25 2.117188 47.550781 11.921875 73.101562 19.980469 94.101562 6.558593 17.101562 11.738281 30.609375 11.738281 51.90625 0 36.429688-13.152344 66.019531-41.085938 91.808594zm0 0"/>
  <path
    d="m399.605469 395.535156h-44.050781c-5.523438 0-10 4.480469-10 10 0 5.523438 4.476562 10 10 10h44.050781c5.523437 0 10-4.476562 10-10 0-5.519531-4.476563-10-10-10zm0 0"/>
  <path
    d="m399.605469 435.535156h-74.734375c-5.523438 0-10 4.480469-10 10 0 5.523438 4.476562 10 10 10h74.734375c5.523437 0 10-4.476562 10-10 0-5.519531-4.476563-10-10-10zm0 0"/>
  <path
    d="m284.871094 435.539062c-2.628906 0-5.210938 1.0625-7.070313 2.929688-1.859375 1.859375-2.929687 4.429688-2.929687 7.070312 0 2.628907 1.070312 5.210938 2.929687 7.070313s4.441407 2.929687 7.070313 2.929687 5.210937-1.070312 7.070312-2.929687c1.859375-1.871094 2.929688-4.441406 2.929688-7.070313 0-2.640624-1.070313-5.210937-2.929688-7.070312-1.859375-1.867188-4.441406-2.929688-7.070312-2.929688zm0 0"/>
  <path
    d="m75.171875 402c2.628906 0 5.210937-1.070312 7.070313-2.929688 1.859374-1.859374 2.929687-4.441406 2.929687-7.070312s-1.070313-5.210938-2.929687-7.070312c-1.859376-1.859376-4.441407-2.929688-7.070313-2.929688-2.632813 0-5.210937 1.070312-7.070313 2.929688-1.871093 1.859374-2.929687 4.441406-2.929687 7.070312s1.058594 5.210938 2.929687 7.070312c1.859376 1.859376 4.429688 2.929688 7.070313 2.929688zm0 0"/>
</svg>
