<?xml version="1.0"?>
<svg xmlns="http://www.w3.org/2000/svg" xmlns:xlink="http://www.w3.org/1999/xlink" xmlns:svgjs="http://svgjs.com/svgjs" version="1.1" width="20" height="20" x="0" y="0" viewBox="0 0 74 74" style="enable-background:new 0 0 512 512" xml:space="preserve" class=""><g><g xmlns="http://www.w3.org/2000/svg" id="color_line" data-name="color line"><path d="m69.1 56.58-27.8-22.8-4.44 5.012 25.861 24.986a4.813 4.813 0 0 0 6.965-.253 4.813 4.813 0 0 0 -.586-6.945z" fill="#3bcf44" data-original="#fcd462" style=""/><path d="m36.376 6.237 17.634 15.62a1.957 1.957 0 0 1 .221 2.742l-2.45 2.766a1.948 1.948 0 0 1 -2.749.112l-17.632-15.621a1.94 1.94 0 0 1 -.221-2.742l2.45-2.766a1.948 1.948 0 0 1 2.747-.111z" fill="#3bcf44" data-original="#fcd462" style=""/><path d="m70.9 60.34a4.775 4.775 0 0 1 -1.21 3.18 4.61 4.61 0 0 1 -1.14.94 4.691 4.691 0 0 0 .44-2 4.806 4.806 0 0 0 -1.8-3.76l-27.78-22.79 1.89-2.13 27.8 22.8a4.791 4.791 0 0 1 1.8 3.76z" fill="#2bb73b" data-original="#f7be56" style="" class=""/><path d="m54.23 24.6-2.45 2.77a1.2 1.2 0 0 1 -.12.11l.67-.76a1.952 1.952 0 0 0 -.23-2.74l-17.63-15.62a1.957 1.957 0 0 0 -2.61-.02l1.77-1.99a1.951 1.951 0 0 1 2.75-.11l17.63 15.62a1.96 1.96 0 0 1 .22 2.74z" fill="#2bb73b" data-original="#f7be56" style="" class=""/><path d="m13.9 31.607 17.637 15.621a1.948 1.948 0 0 1 .221 2.742l-2.45 2.766a1.948 1.948 0 0 1 -2.749.112l-17.634-15.622a1.94 1.94 0 0 1 -.225-2.742l2.45-2.766a1.94 1.94 0 0 1 2.75-.111z" fill="#3bcf44" data-original="#fcd462" style=""/><path d="m27.9 53.86a2.511 2.511 0 0 1 -1.671-.639l-17.636-15.621a2.449 2.449 0 0 1 -.263-3.448l2.449-2.766a2.45 2.45 0 0 1 3.455-.155l17.635 15.622a2.449 2.449 0 0 1 .264 3.448l-2.45 2.766a2.352 2.352 0 0 1 -1.683.791zm-15.338-22.266a1.369 1.369 0 0 0 -1.034.457l-2.45 2.766a1.448 1.448 0 0 0 .178 2.037l17.635 15.62a1.48 1.48 0 0 0 1.066.386 1.359 1.359 0 0 0 .977-.455l2.45-2.766a1.449 1.449 0 0 0 -.178-2.037l-17.635-15.621a1.523 1.523 0 0 0 -1.009-.387z" fill="#0a0a0a" data-original="#323c6b" style="" class=""/><path d="m4.872 65.962h31.928a1.975 1.975 0 0 1 1.975 1.975v4.187a0 0 0 0 1 0 0h-35.875a0 0 0 0 1 0 0v-4.186a1.975 1.975 0 0 1 1.975-1.975z" fill="#2bb73b" data-original="#f7be56" style="" class=""/><path d="m38.771 72.625h-35.871a.5.5 0 0 1 -.5-.5v-4.187a2.478 2.478 0 0 1 2.475-2.475h31.92a2.478 2.478 0 0 1 2.476 2.475v4.188a.5.5 0 0 1 -.5.499zm-35.373-1h34.873v-3.687a1.477 1.477 0 0 0 -1.476-1.475h-31.922a1.477 1.477 0 0 0 -1.473 1.475z" fill="#0a0a0a" data-original="#323c6b" style="" class=""/><path d="m9.606 56.079h22.455a3.147 3.147 0 0 1 3.147 3.147v6.737a0 0 0 0 1 0 0h-28.748a0 0 0 0 1 0 0v-6.737a3.147 3.147 0 0 1 3.146-3.147z" fill="#e32000" data-original="#ebf0f3" style="" class=""/><path d="m32.061 56.079h-2.583a3.147 3.147 0 0 1 3.147 3.147v6.737h2.583v-6.737a3.147 3.147 0 0 0 -3.147-3.147z" fill="#dd7c5f" data-original="#e1e6e9" style="" class=""/><g fill="#323c6b"><path d="m66.083 68.646a8.271 8.271 0 0 1 -5.806-2.364l-.706-.682a.5.5 0 0 1 .694-.72l.708.684a7.287 7.287 0 0 0 7.868 1.536.5.5 0 1 1 .38.925 8.214 8.214 0 0 1 -3.138.621z" fill="#0a0a0a" data-original="#323c6b" style="" class=""/><path d="m58 63.892a.5.5 0 0 1 -.348-.141l-.324-.313a.5.5 0 0 1 .7-.719l.324.313a.5.5 0 0 1 -.348.859z" fill="#0a0a0a" data-original="#323c6b" style="" class=""/><path d="m40.48 6.365a.5.5 0 0 1 -.332-.126l-1.77-1.569a4.485 4.485 0 0 0 -5.645-.146.5.5 0 0 1 -.619-.785 5.511 5.511 0 0 1 6.927.183l1.771 1.57a.5.5 0 0 1 -.332.874z" fill="#0a0a0a" data-original="#323c6b" style="" class=""/><path d="m42.855 8.469a.5.5 0 0 1 -.332-.126l-.583-.517a.5.5 0 1 1 .663-.748l.583.517a.5.5 0 0 1 -.332.874z" fill="#0a0a0a" data-original="#323c6b" style="" class=""/><path d="m66.078 65.646a5.258 5.258 0 0 1 -3.705-1.511l-25.86-24.983a.5.5 0 0 1 -.027-.691l4.441-5.014a.5.5 0 0 1 .691-.055l27.794 22.8a5.313 5.313 0 0 1 -3.136 9.451c-.066.003-.132.003-.198.003zm-28.526-26.88 25.517 24.652a4.313 4.313 0 1 0 5.715-6.448l-27.424-22.5z" fill="#0a0a0a" data-original="#323c6b" style="" class=""/><path d="m50.372 28.489a2.511 2.511 0 0 1 -1.671-.639l-17.635-15.62a2.513 2.513 0 0 1 -.849-1.682 2.354 2.354 0 0 1 .583-1.766l2.449-2.766a2.449 2.449 0 0 1 3.455-.154l17.634 15.62a2.449 2.449 0 0 1 .264 3.448l-2.447 2.77a2.35 2.35 0 0 1 -1.687.791zm-15.337-22.265a1.371 1.371 0 0 0 -1.035.456l-2.448 2.765a1.36 1.36 0 0 0 -.337 1.023 1.512 1.512 0 0 0 .515 1.013l17.634 15.619a1.5 1.5 0 0 0 1.066.386 1.359 1.359 0 0 0 .977-.455l2.45-2.766a1.466 1.466 0 0 0 -.179-2.036l-17.634-15.618a1.525 1.525 0 0 0 -1.009-.387z" fill="#0a0a0a" data-original="#323c6b" style="" class=""/></g><path d="m18.27 18.517h26.385v22.041h-26.385z" fill="#2bb73b" transform="matrix(.663 -.749 .749 .663 -11.51 33.504)" data-original="#f7be56" style="" class=""/><path d="m30.964 47.22a.5.5 0 0 1 -.332-.125l-16.498-14.615a.5.5 0 0 1 -.043-.706l17.5-19.751a.5.5 0 0 1 .344-.167.489.489 0 0 1 .362.125l16.5 14.615a.5.5 0 0 1 .043.706l-17.5 19.751a.5.5 0 0 1 -.344.167zm-15.793-15.157 15.75 13.952 16.833-19-15.754-13.954z" fill="#0a0a0a" data-original="#323c6b" style="" class=""/><path d="m35.208 66.462h-28.749a.5.5 0 0 1 -.5-.5v-6.736a3.651 3.651 0 0 1 3.647-3.646h22.456a3.651 3.651 0 0 1 3.646 3.646v6.737a.5.5 0 0 1 -.5.499zm-28.249-1h27.749v-6.236a2.649 2.649 0 0 0 -2.646-2.646h-22.456a2.65 2.65 0 0 0 -2.647 2.646z" fill="#0a0a0a" data-original="#323c6b" style="" class=""/><path d="m20.508 31.591a.6.6 0 0 1 -.449-1l6.059-6.823a.6.6 0 0 1 .9.8l-6.059 6.823a.6.6 0 0 1 -.451.2z" fill="#ffffff" data-original="#ffffff" style="" class=""/><path d="m28.444 22.614a.6.6 0 0 1 -.454-.992l.509-.589a.6.6 0 0 1 .908.784l-.509.589a.6.6 0 0 1 -.454.208z" fill="#ffffff" data-original="#ffffff" style="" class=""/></g></g></svg>
