<?xml version="1.0" encoding="iso-8859-1"?>
<!-- Generator: Adobe Illustrator 19.0.0, SVG Export Plug-In . SVG Version: 6.00 Build 0)  -->
<svg version="1.1" id="Capa_1" xmlns="http://www.w3.org/2000/svg" xmlns:xlink="http://www.w3.org/1999/xlink" x="0px"
     y="0px"
     height="50"
     width="50"
     viewBox="0 0 512 512" style="enable-background:new 0 0 512 512;" xml:space="preserve">
<path style="fill:#47821C;" d="M470.956,0.001h-0.493C465.504,0.001,189.252,0,188.901,0c-21.921,0-39.882,16.937-41.516,38.435
	c-0.235,2.996-0.081-19.043-0.124,340.35h247.96c21.036,0,38.362-17.044,38.362-38.362v-35.014h64.148
	c5.6,0,10.14-4.539,10.14-10.14V36.917C507.871,16.613,491.259,0.001,470.956,0.001z"/>
  <path style="fill:#91DC5A;" d="M468.213,0v0.072c-19.274,1.158-34.671,17.289-34.671,36.832l0.041,69.249v234.269
	c0,14.083-7.59,26.388-18.902,33.058c-5.708,3.371-12.357,5.305-19.46,5.305h-247.96V41.64c0-1.075,0.041-2.151,0.124-3.205
	C149.019,16.937,166.98,0,188.901,0H468.213z"/>
  <path style="fill:#7ED63E;" d="M385.78,337.465V69.239c0-17.013-13.791-30.804-30.804-30.804H201.265
	c-5.024,0-8.528-4.916-6.973-9.694C199.72,12.059,215.389,0,233.882,0h-44.98c-21.917,0-39.867,16.937-41.505,38.435h-0.011
	c-0.284,3.627-0.014-3.496-0.124,340.35h44.98h202.98c7.104,0,13.753-1.934,19.46-5.305
	C398.199,369.81,385.78,355.023,385.78,337.465z"/>
  <path style="fill:#5EAC24;" d="M328.089,61.186c17.017,0,30.811,13.789,30.811,30.805c0,75.25,0,246.446,0,249.872
	c0,18.774,14.199,34.395,32.399,36.627v0.282H148.631v-0.031c-0.368,0.011-0.734,0.028-1.104,0.028H136.88
	c-14.722,0-26.769-12.046-26.769-26.769V109.008V61.186H328.089z"/>
  <path style="fill:#B6E892;" d="M4.129,470.117V102.828c0-22.998,18.644-41.642,41.642-41.642h279.315v0.073
	c-19.275,1.157-34.677,17.289-34.677,36.837l0.046,69.245v306.3c0,21.185-17.174,38.359-38.359,38.359H46.012
	C22.88,512,4.129,493.248,4.129,470.117z"/>
  <g>
	<path style="fill:#5EAC24;" d="M194.307,142.858H50.77c-4.283,0-7.755,3.471-7.755,7.755s3.472,7.755,7.755,7.755h143.538
		c4.283,0,7.755-3.471,7.755-7.755S198.59,142.858,194.307,142.858z"/>
    <path style="fill:#5EAC24;" d="M232.357,168.333h-0.139c-3.116,0-5.65-2.534-5.65-5.65c0-3.409-2.773-6.182-6.182-6.182
		c-3.409,0-6.182,2.773-6.182,6.182c0,7.589,4.838,14.395,11.902,16.946v4.176c0,3.408,2.773,6.181,6.182,6.181
		c3.409,0,6.182-2.773,6.182-6.181v-4.176c7.064-2.551,11.902-9.357,11.902-16.947c0-9.871-8.023-17.947-17.889-18.014l-0.233-0.008
		c-3.005-0.063-5.543-2.775-5.543-5.921c0-3.077,2.509-5.612,5.56-5.65c3.088,0.026,5.6,2.561,5.6,5.65
		c0,3.409,2.773,6.182,6.182,6.182c3.408,0,6.182-2.773,6.182-6.182c0-7.498-4.781-14.28-11.762-16.882v-4.436
		c0-3.409-2.773-6.182-6.182-6.182c-3.409,0-6.182,2.773-6.182,6.182v4.431c-6.981,2.603-11.762,9.385-11.762,16.887
		c0,9.853,7.893,18.054,17.581,18.281l0.433,0.013c3.116,0,5.65,2.533,5.65,5.649C238.007,165.798,235.473,168.333,232.357,168.333z
		"/>
    <path style="fill:#5EAC24;" d="M194.307,234.592H50.77c-4.283,0-7.755,3.471-7.755,7.755s3.472,7.755,7.755,7.755h143.538
		c4.283,0,7.755-3.471,7.755-7.755S198.59,234.592,194.307,234.592z"/>
    <path style="fill:#5EAC24;" d="M232.484,236.402l-0.233-0.008c-3.005-0.063-5.543-2.775-5.543-5.921c0-3.077,2.509-5.612,5.56-5.65
		c3.088,0.026,5.6,2.561,5.6,5.65c0,3.409,2.773,6.182,6.182,6.182c3.408,0,6.182-2.773,6.182-6.182
		c0-7.498-4.781-14.28-11.762-16.882v-4.436c0-3.409-2.773-6.182-6.182-6.182c-3.409,0-6.182,2.773-6.182,6.182v4.431
		c-6.981,2.603-11.762,9.385-11.762,16.887c0,9.853,7.893,18.054,17.581,18.281l0.433,0.013c3.116,0,5.65,2.533,5.65,5.649
		c0,3.117-2.534,5.651-5.65,5.651h-0.139c-3.116,0-5.65-2.534-5.65-5.65c0-3.409-2.773-6.182-6.182-6.182
		c-3.409,0-6.182,2.773-6.182,6.182c0,7.589,4.838,14.395,11.902,16.946v4.176c0,3.408,2.773,6.181,6.182,6.181
		c3.409,0,6.182-2.773,6.182-6.181v-4.176c7.064-2.551,11.902-9.357,11.902-16.947C250.372,244.545,242.349,236.469,232.484,236.402
		z"/>
    <path style="fill:#5EAC24;" d="M194.307,326.325H50.77c-4.283,0-7.755,3.471-7.755,7.755s3.472,7.755,7.755,7.755h143.538
		c4.283,0,7.755-3.471,7.755-7.755S198.59,326.325,194.307,326.325z"/>
    <path style="fill:#5EAC24;" d="M232.484,328.135l-0.233-0.008c-3.005-0.063-5.543-2.775-5.543-5.921c0-3.077,2.509-5.612,5.56-5.65
		c3.088,0.026,5.6,2.561,5.6,5.65c0,3.409,2.773,6.182,6.182,6.182c3.408,0,6.182-2.773,6.182-6.182
		c0-7.498-4.781-14.28-11.762-16.882v-4.436c0-3.409-2.773-6.182-6.182-6.182c-3.409,0-6.182,2.773-6.182,6.182v4.431
		c-6.981,2.603-11.762,9.385-11.762,16.887c0,9.853,7.893,18.054,17.581,18.281l0.433,0.013c3.116,0,5.65,2.533,5.65,5.649
		c0,3.117-2.534,5.651-5.65,5.651h-0.139c-3.116,0-5.65-2.534-5.65-5.65c0-3.409-2.773-6.182-6.182-6.182
		c-3.409,0-6.182,2.773-6.182,6.182c0,7.589,4.838,14.395,11.902,16.946v4.176c0,3.408,2.773,6.181,6.182,6.181
		c3.409,0,6.182-2.773,6.182-6.181v-4.176c7.064-2.551,11.902-9.357,11.902-16.947C250.372,336.278,242.349,328.203,232.484,328.135
		z"/>
    <path style="fill:#5EAC24;" d="M194.307,418.059H50.77c-4.283,0-7.755,3.471-7.755,7.755s3.472,7.755,7.755,7.755h143.538
		c4.283,0,7.755-3.471,7.755-7.755S198.59,418.059,194.307,418.059z"/>
    <path style="fill:#5EAC24;" d="M232.484,419.869l-0.233-0.008c-3.005-0.063-5.543-2.775-5.543-5.921c0-3.077,2.509-5.612,5.56-5.65
		c3.088,0.026,5.6,2.561,5.6,5.65c0,3.409,2.773,6.182,6.182,6.182c3.408,0,6.182-2.773,6.182-6.182
		c0-7.498-4.781-14.28-11.762-16.882v-4.436c0-3.409-2.773-6.182-6.182-6.182c-3.409,0-6.182,2.773-6.182,6.182v4.431
		c-6.981,2.603-11.762,9.385-11.762,16.887c0,9.853,7.893,18.054,17.581,18.281l0.433,0.013c3.116,0,5.65,2.533,5.65,5.649
		c0,3.117-2.534,5.651-5.65,5.651h-0.139c-3.116,0-5.65-2.534-5.65-5.65c0-3.409-2.773-6.182-6.182-6.182
		c-3.409,0-6.182,2.773-6.182,6.182c0,7.589,4.838,14.395,11.902,16.946v4.176c0,3.408,2.773,6.181,6.182,6.181
		c3.409,0,6.182-2.773,6.182-6.181v-4.176c7.064-2.551,11.902-9.357,11.902-16.947C250.372,428.012,242.349,419.936,232.484,419.869
		z"/>
</g>
  <path style="fill:#A4E276;" d="M81.683,511.999H46.009c-23.131,0-41.878-18.747-41.878-41.878V102.824
	c0-22.997,18.644-41.64,41.64-41.64h35.674c-22.997,0-41.64,18.644-41.64,41.64v367.297
	C39.805,493.252,58.552,511.999,81.683,511.999z"/>
  <g>
</g>
  <g>
</g>
  <g>
</g>
  <g>
</g>
  <g>
</g>
  <g>
</g>
  <g>
</g>
  <g>
</g>
  <g>
</g>
  <g>
</g>
  <g>
</g>
  <g>
</g>
  <g>
</g>
  <g>
</g>
  <g>
</g>
</svg>
