<svg id="Layer_1" enable-background="new 0 0 256 256" height="50" viewBox="0 0 256 256" width="50"
     xmlns="http://www.w3.org/2000/svg">
  <g>
    <path
      d="m36.8 99.5c-4.3-.8-7.7-4.1-8.5-8.4 0-.1-.1-.2-.2-.2s-.1.1-.2.2c-.9 4.3-4.2 7.6-8.5 8.4-.1 0-.2.1-.2.2s.1.2.2.2c4.3.8 7.7 4.1 8.5 8.4 0 .1.1.2.2.2s.1-.1.2-.2c.9-4.3 4.2-7.6 8.5-8.4.1 0 .2-.1.2-.2s-.1-.2-.2-.2z"
      fill="#f5c84c"/>
    <path
      d="m249.9 180.6c-3.1-.6-5.5-2.9-6.1-6 0-.1-.1-.1-.2-.1s-.1.1-.1.1c-.6 3.1-3.1 5.5-6.1 6-.1 0-.1.1-.1.2s.1.1.1.1c3.1.6 5.5 2.9 6.1 6 0 .1.1.1.2.1s.1-.1.1-.1c.6-3.1 3.1-5.5 6.1-6 .1 0 .1-.1.1-.2s-.1-.1-.1-.1z"
      fill="#fc657e"/>
    <path
      d="m201 12.3h-2.2v-2.3c0-1.7-1.4-3-3-3-1.7 0-3 1.4-3 3v2.2h-2.2c-1.7 0-3 1.4-3 3s1.4 3 3 3h2.2v2.2c0 1.7 1.4 3 3 3 1.7 0 3-1.4 3-3v-2.2h2.2c1.7 0 3-1.4 3-3 .1-1.6-1.3-2.9-3-2.9z"
      fill="#70d6f9"/>
    <circle cx="211.2" cy="35.4" fill="#87d147" r="3.2"/>
    <circle cx="249.2" cy="162.4" fill="#f5c84c" r="3.2"/>
    <circle cx="40.2" cy="73.4" fill="#70d6f9" r="3.2"/>
    <path
      d="m239.6 95.7-90.8-81.2-90.8 81.2c-2.1 1.9-5.3 1.7-7.2-.4s-1.8-5.3.3-7.2h.1l94.2-84.2c1.9-1.7 4.9-1.7 6.8 0l94.2 84.1c2.1 1.9 2.3 5.1.5 7.2s-5.2 2.4-7.3.5z"
      fill="#edf4fc"/>
    <path d="m148.8 14.5-86.5 77.4h173z" fill="#c7d7e5"/>
    <path d="m247.4 224h-102.4v10.2h102.4c2.8 0 5-2.3 5-5.2 0-2.8-2.2-5-5-5z" fill="#edf4fc"/>
    <path d="m239 213.8h-94v10.2h94c2.8 0 5-2.3 5-5.2-.1-2.7-2.3-5-5-5z" fill="#dae6f1"/>
    <path
      d="m54.6 99.5c-4.2 0-7.6-3.4-7.6-7.6 0-2.2.9-4.2 2.5-5.7l94.2-84.2c2.9-2.6 7.3-2.6 10.2 0l94.1 84.2c3.1 2.8 3.4 7.6.6 10.8-2.8 3.1-7.6 3.4-10.8.6l-89.1-79.7-89 79.6c-1.4 1.3-3.2 2-5.1 2zm94.2-94.5c-.6 0-1.3.2-1.7.7l-94.3 84.2c-1.1.9-1.2 2.6-.3 3.7s2.6 1.2 3.7.3c0 0 .1-.1.1-.1l90.8-81.2c.9-.8 2.4-.8 3.3 0l90.8 81.2c1 1 2.7 1 3.7-.1 1-1 1-2.7-.1-3.7 0 0-.1-.1-.1-.1l-94.2-84.2c-.5-.5-1.1-.7-1.7-.7z"/>
    <path
      d="m235.3 94.4h-173c-1.4 0-2.5-1.1-2.5-2.5 0-.7.3-1.4.8-1.9l86.5-77.4c.9-.8 2.4-.8 3.3 0l86.6 77.4c1 .9 1.1 2.5.2 3.5-.5.6-1.2.9-1.9.9zm-166.5-5h159.9l-80-71.5z"/>
    <path
      d="m236.5 208.6c0-2.9-2.4-5.3-5.3-5.3h-27.4c-2.9 0-5.3 2.4-5.3 5.3s2.3 5.2 5.2 5.2h.1 27.4c2.9.1 5.3-2.2 5.3-5.2z"
      fill="#edf4fc"/>
    <path
      d="m236.5 97c0-2.9-2.3-5.2-5.2-5.1h-.1-27.4c-2.9-.1-5.2 2.2-5.3 5v.1c0 2.9 2.4 5.3 5.3 5.3h27.4c3 0 5.3-2.4 5.3-5.3z"
      fill="#edf4fc"/>
    <path d="m231.2 203.3h.1v-5.1c0-2.2-1.8-3.9-3.9-3.9h-18.9c-2.2 0-3.9 1.8-3.9 3.9v5.1z" fill="#dae6f1"/>
    <path d="m231.2 102.3h-26.7v5.1c0 2.2 1.8 3.9 3.9 3.9h18.9c2.2 0 3.9-1.8 3.9-3.9z" fill="#dae6f1"/>
    <path d="m227.4 111.4h-18.9c-.1 0-.1 0-.2 0v82.9h.2 18.9.2v-82.9c0-.1-.1 0-.2 0z" fill="#c7d7e5"/>
    <path
      d="m231.2 216.3h-27.4c-4.2.1-7.7-3.3-7.8-7.5 0-.1 0-.1 0-.2 0-4.3 3.5-7.8 7.8-7.8h27.4c4.3 0 7.8 3.5 7.8 7.8 0 4.2-3.4 7.7-7.6 7.7-.1 0-.1 0-.2 0zm-27.4-10.5c-1.5 0-2.8 1.3-2.8 2.8s1.2 2.7 2.7 2.7h.1 27.4c1.5 0 2.8-1.1 2.8-2.6 0 0 0 0 0-.1 0-1.5-1.3-2.8-2.8-2.8z"/>
    <path
      d="m231.2 104.8h-27.4c-4.3 0-7.8-3.5-7.8-7.8 0-4.2 3.4-7.6 7.6-7.6h.2 27.4c4.2-.1 7.7 3.3 7.8 7.5v.2c0 4.2-3.5 7.7-7.8 7.7zm-27.4-10.4c-1.5-.1-2.7 1.1-2.8 2.5v.1c0 1.5 1.3 2.8 2.8 2.8h27.4c1.5 0 2.8-1.3 2.8-2.8s-1.2-2.7-2.7-2.6h-.1z"/>
    <path
      d="m231.4 205.8s-.1 0-.2 0h-26.6c-1.4 0-2.5-1.1-2.5-2.5v-5.1c0-3.6 2.9-6.4 6.4-6.4h18.9c3.6 0 6.4 2.9 6.4 6.4v5.1c.1 1.4-1 2.5-2.4 2.5zm-24.3-5h21.8v-2.6c0-.8-.6-1.4-1.4-1.4h-18.9c-.8 0-1.4.6-1.4 1.4z"/>
    <path
      d="m227.4 113.9h-18.9c-3.6 0-6.4-2.9-6.4-6.4v-5.1c0-1.4 1.1-2.5 2.5-2.5h26.6.2c1.4 0 2.5 1.1 2.5 2.5v5.1c0 3.5-2.9 6.4-6.5 6.4zm-20.3-9.1v2.6c0 .8.6 1.4 1.4 1.4h18.9c.8 0 1.4-.6 1.4-1.4v-2.6z"/>
    <path
      d="m227.6 196.8h-.1s-.1 0-.2 0h-18.7c-.1 0-.1 0-.2 0-1.4.1-2.5-1-2.6-2.4v-.1-82.9c0-.7.3-1.3.8-1.8s1.2-.7 1.8-.7h.2 18.7.2c.7 0 1.3.2 1.8.7s.8 1.1.8 1.8v82.9c0 1.3-1.1 2.5-2.5 2.5zm-16.8-5.1h14.3v-77.9h-14.3z"/>
    <path
      d="m190.7 208.6c0-2.9-2.4-5.3-5.3-5.3h-27.4c-2.9 0-5.3 2.4-5.3 5.3s2.3 5.2 5.2 5.2h.1 27.4c2.9.1 5.2-2.2 5.3-5.2z"
      fill="#edf4fc"/>
    <path
      d="m190.7 97c0-2.9-2.3-5.2-5.2-5.1h-.1-27.4c-2.9-.1-5.2 2.2-5.3 5v.1c0 2.9 2.4 5.3 5.3 5.3h27.4c2.9 0 5.3-2.4 5.3-5.3z"
      fill="#edf4fc"/>
    <path d="m185.4 203.3h.1v-5.1c0-2.2-1.8-3.9-3.9-3.9h-18.9c-2.2 0-3.9 1.8-3.9 3.9v5.1z" fill="#dae6f1"/>
    <path d="m185.4 102.3h-26.7v5.1c0 2.2 1.8 3.9 3.9 3.9h18.9c2.2 0 3.9-1.8 3.9-3.9z" fill="#dae6f1"/>
    <path d="m181.6 111.4h-18.9c-.1 0-.1 0-.2 0v82.9h.2 18.9.2v-82.9c-.1-.1-.1 0-.2 0z" fill="#c7d7e5"/>
    <path
      d="m185.4 216.3h-27.4c-4.2.1-7.7-3.3-7.8-7.5 0-.1 0-.1 0-.2 0-4.3 3.5-7.8 7.8-7.8h27.4c4.3 0 7.8 3.5 7.8 7.8 0 4.2-3.4 7.7-7.6 7.7-.1 0-.2 0-.2 0zm-27.4-10.5c-1.5 0-2.8 1.3-2.8 2.8s1.2 2.7 2.7 2.7h.1 27.4c1.5 0 2.8-1.1 2.8-2.6 0 0 0 0 0-.1 0-1.5-1.3-2.8-2.8-2.8z"/>
    <path
      d="m185.4 104.8h-27.4c-4.3 0-7.8-3.5-7.8-7.8 0-4.2 3.4-7.6 7.6-7.6h.2 27.4c4.2-.1 7.7 3.3 7.8 7.5v.2c0 4.2-3.5 7.7-7.8 7.7zm-27.4-10.4c-1.5-.1-2.7 1.1-2.8 2.5v.1c0 1.5 1.3 2.8 2.8 2.8h27.4c1.5 0 2.8-1.3 2.8-2.8s-1.2-2.7-2.7-2.6h-.1z"/>
    <path
      d="m185.5 205.8s-.1 0-.2 0h-26.6c-1.4 0-2.5-1.1-2.5-2.5v-5.1c0-3.6 2.9-6.4 6.4-6.4h18.9c3.6 0 6.4 2.9 6.4 6.4v5.1c.1 1.4-1 2.5-2.4 2.5zm-24.3-5h21.8v-2.6c0-.8-.6-1.4-1.4-1.4h-18.9c-.8 0-1.4.6-1.4 1.4v2.6z"/>
    <path
      d="m181.6 113.9h-18.9c-3.6 0-6.4-2.9-6.4-6.4v-5.1c0-1.4 1.1-2.5 2.5-2.5h26.6.2c1.4 0 2.5 1.1 2.5 2.5v5.1c-.1 3.5-2.9 6.4-6.5 6.4zm-20.4-9.1v2.6c0 .8.6 1.4 1.4 1.4h18.9c.8 0 1.4-.6 1.4-1.4v-2.6z"/>
    <path
      d="m181.8 196.8h-.1s-.1 0-.2 0h-18.7c-.1 0-.1 0-.2 0-1.4.1-2.5-1-2.6-2.4v-.1-82.9c0-.7.3-1.3.8-1.8s1.2-.7 1.8-.7h.2 18.7.2c.7 0 1.3.2 1.8.7s.8 1.1.8 1.8v82.9c0 1.3-1.1 2.5-2.5 2.5zm-16.8-5.1h14.3v-77.9h-14.3z"/>
    <path
      d="m144.9 97c0-2.9-2.3-5.2-5.2-5.1h-.1-27.4c-2.9-.1-5.2 2.2-5.3 5v.1c0 2.9 2.4 5.3 5.3 5.3h27.4c2.9 0 5.3-2.4 5.3-5.3z"
      fill="#edf4fc"/>
    <path d="m139.6 102.3h-26.7v5.1c0 2.2 1.8 3.9 3.9 3.9h18.9c2.2 0 3.9-1.8 3.9-3.9z" fill="#dae6f1"/>
    <path d="m136 126.2v-14.9c-.1 0-.1 0-.2 0h-18.9c-.1 0-.1 0-.2 0v14.9z" fill="#c7d7e5"/>
    <path
      d="m139.6 104.8h-27.4c-4.3 0-7.8-3.5-7.8-7.8 0-4.2 3.4-7.6 7.6-7.6h.2 27.4c4.2-.1 7.7 3.3 7.8 7.5v.2c0 4.2-3.5 7.7-7.8 7.7zm-27.4-10.4c-1.5-.1-2.7 1.1-2.8 2.5v.1c0 1.5 1.3 2.8 2.8 2.8h27.4c1.5 0 2.8-1.3 2.8-2.8s-1.2-2.7-2.7-2.6h-.1z"/>
    <path
      d="m135.8 113.9h-18.9c-3.6 0-6.4-2.9-6.4-6.4v-5.1c0-1.4 1.1-2.5 2.5-2.5h26.6.2c1.4 0 2.5 1.1 2.5 2.5v5.1c-.1 3.5-3 6.4-6.5 6.4zm-20.4-9.1v2.6c0 .8.6 1.4 1.4 1.4h18.9c.8 0 1.4-.6 1.4-1.4v-2.6z"/>
    <path
      d="m136 128.7h-19.3c-1.4 0-2.5-1.1-2.5-2.5v-14.9c0-.7.3-1.3.8-1.8s1.2-.7 1.9-.7h.2 18.7.2c1.4-.1 2.6 1 2.6 2.4v.1 14.9c-.1 1.4-1.3 2.5-2.6 2.5zm-16.9-5h14.3v-9.8h-14.3z"/>
    <path
      d="m99 97c0-2.9-2.3-5.2-5.2-5.1h-.1-27.4c-2.9-.1-5.2 2.2-5.3 5v.1c0 2.9 2.4 5.3 5.3 5.3h27.4c3 0 5.3-2.4 5.3-5.3z"
      fill="#edf4fc"/>
    <path d="m93.7 102.3h-26.6v5.1c0 2.2 1.8 3.9 3.9 3.9h18.9c2.2 0 3.9-1.8 3.9-3.9v-5.1s0 0-.1 0z" fill="#dae6f1"/>
    <path d="m90.1 126.2v-14.9c-.1 0-.1 0-.2 0h-18.9c-.1 0-.1 0-.2 0v14.9z" fill="#c7d7e5"/>
    <path
      d="m93.7 104.8h-27.4c-4.3 0-7.8-3.5-7.8-7.8 0-4.2 3.4-7.6 7.6-7.6h.2 27.4c4.2-.1 7.7 3.3 7.8 7.5v.2c0 4.2-3.5 7.7-7.8 7.7zm-27.4-10.4c-1.5-.1-2.7 1.1-2.8 2.5v.1c0 1.5 1.3 2.8 2.8 2.8h27.4c1.5 0 2.8-1.3 2.8-2.8s-1.2-2.7-2.7-2.6h-.1z"/>
    <path
      d="m89.9 113.9h-18.9c-3.6 0-6.4-2.9-6.4-6.4v-5.1c0-1.4 1.1-2.5 2.5-2.5h26.6.2c1.4 0 2.5 1.1 2.5 2.5v5.1c0 3.5-2.9 6.4-6.5 6.4zm-20.3-9.1v2.6c0 .8.6 1.4 1.4 1.4h18.9c.8 0 1.4-.6 1.4-1.4v-2.6z"/>
    <path
      d="m90.1 128.7h-19.3c-1.4 0-2.5-1.1-2.5-2.5v-14.9c0-1.4 1.1-2.5 2.5-2.5h.1.2 18.7.2c1.4-.1 2.6 1 2.6 2.4v.1 14.9c0 1.4-1.1 2.5-2.5 2.5zm-16.8-5h14.3v-9.8h-14.3z"/>
    <path
      d="m247.4 236.6h-102.4c-1.4 0-2.5-1.1-2.5-2.5v-10.1c0-1.4 1.1-2.5 2.5-2.5h102.4c4.2 0 7.5 3.5 7.5 7.7 0 4-3.4 7.4-7.5 7.4zm-99.9-5h99.9c1.4 0 2.6-1.2 2.5-2.6 0-1.4-1.1-2.5-2.5-2.5h-99.9z"/>
    <path
      d="m239 226.5h-94c-1.4 0-2.5-1.1-2.5-2.5v-10.2c0-1.4 1.1-2.5 2.5-2.5h94c4.2 0 7.5 3.5 7.5 7.7-.1 4.1-3.4 7.4-7.5 7.5zm-91.5-5h91.5c1.4 0 2.6-1.2 2.5-2.6 0-1.4-1.1-2.5-2.5-2.5h-91.5z"/>
    <circle cx="148.8" cy="60.2" fill="#edf4fc" r="9.6"/>
    <path
      d="m148.8 72.4c-6.7 0-12.1-5.4-12.1-12.1s5.4-12.1 12.1-12.1 12.1 5.4 12.1 12.1c0 6.6-5.4 12.1-12.1 12.1zm0-19.3c-3.9 0-7.1 3.2-7.1 7.1s3.2 7.1 7.1 7.1 7.1-3.2 7.1-7.1c0-3.9-3.2-7.1-7.1-7.1z"/>
    <path
      d="m140.7 126.2h-132.9c-2.4 0-4.3 1.9-4.3 4.3v21.4c0-2.3 1.9-4.3 4.3-4.3h133c2.3 0 4.3 1.9 4.3 4.3v-21.4c-.1-2.4-2-4.3-4.4-4.3z"
      fill="#87d147"/>
    <path
      d="m98.3 147.6h31.2c-4.1-2.8-7.2-7-8.6-11.7-.2-.7-.9-1.3-1.7-1.2h-89.8c-.8 0-1.5.5-1.7 1.2-1.4 4.8-4.5 8.9-8.6 11.7z"
      fill="#b2e26d"/>
    <path
      d="m3.5 154.3c-1.4 0-2.5-1.1-2.5-2.5v-21.4c0-3.7 3-6.8 6.8-6.8h133c3.7 0 6.8 3 6.8 6.8v21.4c0 1.4-1.1 2.5-2.5 2.5s-2.5-1.1-2.5-2.5c0-1-.8-1.8-1.8-1.8h-133c-1 0-1.8.8-1.8 1.8 0 1.4-1.1 2.5-2.5 2.5zm4.3-25.6c-1 0-1.8.8-1.8 1.8v14.8c.6-.2 1.2-.2 1.8-.2h133c.6 0 1.2.1 1.8.2v-14.8c0-1-.8-1.8-1.8-1.8z"/>
    <path
      d="m129.4 150.1h-110.4c-1.4 0-2.5-1.1-2.5-2.5 0-.8.4-1.6 1.1-2.1 3.7-2.5 6.4-6.2 7.7-10.4.6-1.8 2.2-3 4.1-3h89.7c1.9 0 3.5 1.2 4.1 3 1.3 4.2 4 7.9 7.7 10.4 1.1.8 1.4 2.3.7 3.5-.6.7-1.3 1.1-2.2 1.1zm-103.9-5h97.5c-2-2.4-3.5-5.1-4.4-8h-88.7c-.9 2.9-2.4 5.6-4.4 8z"/>
    <path
      d="m140.7 147.6h-132.9c-2.3 0-4.3 1.9-4.3 4.3v21.4c0-2.3 1.9-4.3 4.3-4.3h133c2.3 0 4.3 1.9 4.3 4.3v-21.4c-.1-2.4-2-4.3-4.4-4.3z"
      fill="#87d147"/>
    <path
      d="m98.3 168.9h31.2c-4.1-2.8-7.2-7-8.6-11.7-.2-.7-.9-1.3-1.7-1.2h-89.8c-.8 0-1.5.5-1.7 1.2-1.4 4.8-4.5 8.9-8.6 11.7z"
      fill="#b2e26d"/>
    <path
      d="m3.5 175.7c-1.4 0-2.5-1.1-2.5-2.5v-21.4c0-3.7 3-6.8 6.8-6.8h133c3.7 0 6.8 3 6.8 6.8v21.4c0 1.4-1.1 2.5-2.5 2.5s-2.5-1.1-2.5-2.5c0-1-.8-1.8-1.8-1.8h-133c-1 0-1.8.8-1.8 1.8 0 1.4-1.1 2.5-2.5 2.5zm4.3-25.6c-1 0-1.8.8-1.8 1.8v14.8c.6-.2 1.2-.2 1.8-.2h133c.6 0 1.2.1 1.8.2v-14.8c0-1-.8-1.8-1.8-1.8z"/>
    <path
      d="m129.4 171.4h-110.4c-1.4 0-2.5-1.1-2.5-2.5 0-.8.4-1.6 1.1-2.1 3.7-2.5 6.4-6.2 7.7-10.4.6-1.8 2.2-3 4.1-3h89.7c1.9 0 3.5 1.2 4.1 3 1.3 4.2 4 7.9 7.7 10.4 1.1.8 1.4 2.3.7 3.5-.6.7-1.3 1.1-2.2 1.1zm-103.9-5h97.5c-2-2.4-3.5-5.1-4.4-8h-88.7c-.9 3-2.4 5.7-4.4 8z"/>
    <path
      d="m140.7 168.9h-132.9c-2.3 0-4.3 1.9-4.3 4.3v76c0 2.3 1.9 4.3 4.3 4.3h133c2.3 0 4.3-1.9 4.3-4.3v-76c-.1-2.3-2-4.3-4.4-4.3z"
      fill="#87d147"/>
    <path
      d="m135.4 193.1c-7-2.1-12.5-7.6-14.6-14.6-.2-.7-.9-1.3-1.7-1.2h-89.7c-.8 0-1.5.5-1.7 1.2-2.1 7-7.6 12.5-14.6 14.6-.7.2-1.3.9-1.2 1.7v32.8c0 .8.5 1.5 1.2 1.7 7 2.1 12.5 7.6 14.6 14.6.2.7.9 1.3 1.7 1.2h89.7c.8 0 1.5-.5 1.7-1.2 2.1-7 7.6-12.5 14.6-14.6.7-.2 1.3-.9 1.2-1.7v-32.8c0-.8-.5-1.4-1.2-1.7z"
      fill="#b2e26d"/>
    <circle cx="74.2" cy="211.2" fill="#87d147" r="23.9"/>
    <path
      d="m77.2 224.2h-9.3c-1.4 0-2.5-1.1-2.5-2.5s1.1-2.5 2.5-2.5h9.3c1.5 0 2.8-1.2 2.8-2.8 0-1.5-1.2-2.8-2.8-2.8h-5.8c-4.3 0-7.8-3.5-7.8-7.8s3.5-7.8 7.8-7.8h8.3c1.4 0 2.5 1.1 2.5 2.5s-1.1 2.5-2.5 2.5h-8.3c-1.5 0-2.8 1.2-2.8 2.8 0 1.5 1.2 2.8 2.8 2.8h5.8c4.3 0 7.8 3.5 7.8 7.8-.1 4.4-3.6 7.8-7.8 7.8z"/>
    <path
      d="m74.2 227.9c-1.4 0-2.5-1.1-2.5-2.5v-28.3c0-1.4 1.1-2.5 2.5-2.5s2.5 1.1 2.5 2.5v28.3c0 1.3-1.1 2.5-2.5 2.5z"/>
    <path
      d="m140.7 256h-132.9c-3.8 0-6.8-3-6.8-6.8v-76c0-3.7 3-6.8 6.8-6.8h133c3.7 0 6.8 3 6.8 6.8v76c-.1 3.8-3.1 6.8-6.9 6.8zm-132.9-84.6c-1 0-1.8.8-1.8 1.8v76c0 1 .8 1.8 1.8 1.8h133c1 0 1.8-.8 1.8-1.8v-76c0-1-.8-1.8-1.8-1.8z"/>
    <path d="m37.4 213.7h-5c-1.4 0-2.5-1.1-2.5-2.5s1.1-2.5 2.5-2.5h5c1.4 0 2.5 1.1 2.5 2.5s-1.1 2.5-2.5 2.5z"/>
    <path d="m116.1 213.7h-5c-1.4 0-2.5-1.1-2.5-2.5s1.1-2.5 2.5-2.5h5c1.4 0 2.5 1.1 2.5 2.5s-1.1 2.5-2.5 2.5z"/>
    <path
      d="m119.1 247.6h-89.7c-1.9 0-3.5-1.2-4.1-3-1.9-6.2-6.7-11-12.9-12.9-1.8-.6-3-2.2-3-4.1v-32.8c0-1.9 1.2-3.5 3-4.1 6.2-1.9 11-6.7 12.9-12.9.6-1.8 2.2-3 4.1-3h89.7c1.9 0 3.5 1.2 4.1 3 1.9 6.2 6.7 11 12.9 12.9 1.8.6 3 2.2 3 4.1v32.8c0 1.9-1.2 3.5-3 4.1-6.2 1.9-11 6.7-12.9 12.9-.6 1.8-2.2 3-4.1 3zm-89.2-5h88.6c2.4-7.4 8.2-13.2 15.5-15.5v-31.7c-7.4-2.4-13.2-8.2-15.5-15.5h-88.6c-2.4 7.4-8.2 13.2-15.5 15.5v31.7c7.3 2.4 13.1 8.2 15.5 15.5z"/>
    <path
      d="m74.2 237.6c-14.6 0-26.4-11.8-26.4-26.4s11.8-26.4 26.4-26.4 26.4 11.8 26.4 26.4-11.8 26.4-26.4 26.4zm0-47.7c-11.8 0-21.4 9.6-21.4 21.4s9.6 21.4 21.4 21.4 21.4-9.6 21.4-21.4c0-11.9-9.6-21.4-21.4-21.4z"/>
  </g>
</svg>
