<?xml version="1.0"?>
<svg xmlns="http://www.w3.org/2000/svg" xmlns:xlink="http://www.w3.org/1999/xlink" xmlns:svgjs="http://svgjs.com/svgjs"
     version="1.1" width="25" height="25" x="0" y="0" viewBox="0 0 512 512" style="enable-background:new 0 0 512 512"
     xml:space="preserve" class=""><g><g xmlns="http://www.w3.org/2000/svg"><path d="m421.425 0c-39.064 0-70.731 31.667-70.731 70.731v140.465h131.462v-150.465c0-33.541-27.19-60.731-60.731-60.731z" fill="#eba333" data-original="#d0d0f4" style="" class=""/><path
  d="m360.694 60.731c0-33.541 27.19-60.731 60.731-60.731h-316.601c-41.344 0-74.98 33.636-74.98 74.98v421.75c0 13.53 16.522 20.097 25.834 10.374l19.188-20.039 20.271 20.271c5.857 5.857 15.354 5.857 21.211.002l19.209-19.203 19.415 19.247c5.849 5.798 15.275 5.797 21.122 0l19.71-19.542 19.719 19.544c5.843 5.791 15.262 5.795 21.109.008l18.999-18.799 18.949 18.788c5.848 5.797 15.275 5.798 21.123.001l19.71-19.542 19.719 19.544c9.452 9.365 25.559 2.646 25.559-10.654.003-20.775.003-422.975.003-435.999z"
  fill="#f2f2fc" data-original="#f2f2fc" style=""/><path
  d="m421.424 0c-33.54 0-60.73 27.19-60.73 60.73v436c0 13.3-16.11 20.02-25.56 10.65l-19.72-19.54-19.71 19.54c-5.85 5.8-15.27 5.8-21.12 0l-18.95-18.79-19 18.8c-5.85 5.79-15.27 5.79-21.11-.01l-19.72-19.54v-487.84z"
  fill="#e3e3f9" data-original="#e3e3f9" style=""/><path
  d="m222.5 136.54c-14.351-11.184-33.076-12.92-37.258-20.47-1.476-2.665.097-7.054 3.3-9.208 4.558-3.065 14.309-1.857 17.735 1.303 6.09 5.618 15.58 5.233 21.196-.856 5.617-6.09 5.233-15.58-.856-21.196-4.66-4.298-10.571-7.365-16.961-9.155v-1.237c0-8.284-6.716-15-15-15s-15 6.716-15 15v2.241c-21.803 8.17-31.168 33.666-20.657 52.644 11.098 20.035 34.343 21.244 45.061 29.597 9.309 7.255 3.789 16.907-3.122 20.159-6.194 2.914-18.648 1.113-26.126-3.779-6.932-4.534-16.23-2.591-20.764 4.341-4.535 6.933-2.591 16.229 4.341 20.764 5.828 3.813 13.28 6.888 21.268 8.6v1.908c0 8.284 6.716 15 15 15s15-6.716 15-15v-3.061c30.413-10.537 41.314-50.409 12.843-72.595z"
  fill="#dadaf7" data-original="#dadaf7" style=""/><path
  d="m209.654 209.14v3.06c0 7.89-6.1 14.37-13.85 14.95v-45.51c11.149-1.029 18.471-13.469 8.26-21.44-2.27-1.77-5.1-3.22-8.26-4.59v-32.38c7.7 3.23 18 6.54 26.7 13.31 28.47 22.19 17.57 62.06-12.85 72.6z"
  fill="#eba333" data-original="#d0d0f4" style="" class=""/><path
  d="m206.274 108.16c-2.05-1.89-6.36-3.08-10.47-3.07v-44.32c7.75.58 13.85 7.06 13.85 14.95v1.24c6.39 1.79 12.3 4.85 16.96 9.15 6.09 5.62 6.48 15.11.86 21.2s-15.11 6.47-21.2.85z"
  fill="#eba333" data-original="#d0d0f4" style="" class=""/><g fill="#dadaf7"><path d="m105.793 286.08h75c8.284 0 15-6.716 15-15s-6.716-15-15-15h-75c-8.284 0-15 6.716-15 15s6.716 15 15 15z" fill="#dadaf7" data-original="#dadaf7" style=""/>
  <path d="m180.793 316.18h-75.05c-8.284 0-15 6.716-15 15s6.716 15 15 15h75.05c8.284 0 15-6.716 15-15s-6.716-15-15-15z"
        fill="#dadaf7" data-original="#dadaf7" style=""/>
  <path d="m180.793 376.08h-75.1c-8.284 0-15 6.716-15 15s6.716 15 15 15h75.1c8.284 0 15-6.716 15-15s-6.716-15-15-15z"
        fill="#dadaf7" data-original="#dadaf7" style=""/></g><circle cx="346.156" cy="377" fill="#ff8a66" r="135"
                                                                     data-original="#ff8a66" style=""/><path
  d="m481.154 377c0 74.44-60.56 135-135 135v-270c74.44 0 135 60.56 135 135z" fill="#f97658" data-original="#f97658"
  style=""/><circle cx="346.156" cy="377" fill="#fedd33" r="105" data-original="#fedd33" style=""/><path
  d="m451.154 377c0 57.9-47.1 105-105 105v-210c57.9 0 105 47.1 105 105z" fill="#fbbd43" data-original="#fbbd43"
  style=""/><path
  d="m351.156 320.362c-8.284 0-15 6.716-15 15v30.638h-30.362c-8.284 0-15 6.716-15 15s6.716 15 15 15h45.362c8.284 0 15-6.716 15-15v-45.638c0-8.284-6.716-15-15-15z"
  fill="#ff8a66" data-original="#ff8a66" style=""/><path
  d="m366.154 335.36v45.64c0 8.28-6.71 15-15 15h-5v-74.78c1.57-.56 3.25-.86 5-.86 8.29 0 15 6.72 15 15z" fill="#f97658"
  data-original="#f97658" style=""/></g></g></svg>
