<?xml version="1.0"?>
<svg xmlns="http://www.w3.org/2000/svg" xmlns:xlink="http://www.w3.org/1999/xlink" xmlns:svgjs="http://svgjs.com/svgjs"
     version="1.1" width="20" height="20" x="0" y="0" viewBox="0 0 59 52" style="enable-background:new 0 0 512 512"
     xml:space="preserve" class=""><g><g xmlns="http://www.w3.org/2000/svg" id="Page-1" fill="none" fill-rule="evenodd"><g id="048---Money" fill="rgb(0,0,0)" fill-rule="nonzero"><path id="Shape" d="m1.17 29.45c1.21545702 10.4965204 8.78223169 19.1542499 19.0215401 21.7640086 10.2393083 2.6097587 21.0270403-1.3698391 27.1184599-10.0040086.2913018-.4126041.4484269-.9049293.45-1.41.0005096-1.0941843-.7086681-2.062306-1.7520634-2.3917993-1.0433953-.3294932-2.1799557.0557638-2.8079366.9517993-5.6591761 7.9612143-16.1513246 10.8206383-25.0673045 6.8315895-8.91597985-3.9890488-13.77636327-13.7172633-11.61217944-23.2421526s10.75110114-16.19769495 20.51542364-15.94232606c9.7643225.2553689 17.9907084 7.36789736 19.6540603 16.99288916h-5.69c-.3947355.000931-.7519873.233982-.9119039.5948749s-.0925707.782089.1719039 1.0751251l8.5 9c.1895245.2085142.458224.3273931.74.3273931s.5504755-.1188789.74-.3273931l8.5-9c.2644746-.2930361.3318205-.7142322.1719039-1.0751251s-.5171684-.5939439-.9119039-.5948749h-6.24c-1.8363274-13.91927334-14.5788318-23.73565093-28.5059757-21.96000202-13.92714403 1.77564892-23.79896101 14.47525192-22.0840243 28.41000202z" fill="#e70b0b" data-original="#000000" style=""/><path
  id="Shape"
  d="m28 25.056v-8.988c2.833.358 5 2.207 5 4.432 0 .5522847.4477153 1 1 1s1-.4477153 1-1c0-3.308-3.06-6.042-7-6.444v-1.056c0-.5522847-.4477153-1-1-1s-1 .4477153-1 1v1.056c-3.94.4-7 3.136-7 6.444s3.06 6.042 7 6.444v8.988c-2.833-.358-5-2.207-5-4.432 0-.5522847-.4477153-1-1-1s-1 .4477153-1 1c0 3.308 3.06 6.042 7 6.444v1.056c0 .5522847.4477153 1 1 1s1-.4477153 1-1v-1.056c3.94-.4 7-3.136 7-6.444s-3.06-6.042-7-6.444zm-7-4.556c0-2.225 2.167-4.074 5-4.432v8.864c-2.833-.358-5-2.207-5-4.432zm7 15.432v-8.864c2.833.358 5 2.207 5 4.432s-2.167 4.074-5 4.432z"
  fill="#e70b0b" data-original="#000000" style=""/></g></g></g></svg>
