<svg id="Capa_1" enable-background="new 0 0 512 512" height="25" viewBox="0 0 512 512" width="25"
     xmlns="http://www.w3.org/2000/svg">
  <g>
    <path
      d="m512 193.341v225.891c0 51.234-41.534 92.768-92.768 92.768h-326.464c-51.234 0-92.768-41.534-92.768-92.768v-326.464c0-51.234 41.534-92.768 92.768-92.768l109.81 24.679 116.072-24.679c11.87 0 23.254 4.715 31.648 13.109l148.592 148.582c8.394 8.394 13.11 19.779 13.11 31.65z"
      fill="#9dc6fb"/>
    <path
      d="m140.043 512h-47.275c-51.231 0-92.768-41.537-92.768-92.768v-326.464c0-51.231 41.537-92.768 92.768-92.768l17.663 4.827c-36.712 12.359-63.155 47.064-63.155 87.94v326.464c-.001 51.232 41.536 92.769 92.767 92.769z"
      fill="#80b4fb"/>
    <path
      d="m279.486 165.743h-147.555c-21.629 0-39.163-17.534-39.163-39.163v-126.58h225.882v126.58c0 21.629-17.534 39.163-39.164 39.163z"
      fill="#f9f6f9"/>
    <path
      d="m252.937 136.702c-15.325 0-27.749-12.424-27.749-27.749v-49.331c0-15.325 12.424-27.749 27.749-27.749 15.325 0 27.749 12.424 27.749 27.749v49.331c0 15.325-12.424 27.749-27.749 27.749z"
      fill="#2b4d66"/>
    <path
      d="m367.56 231.253h-223.12c-28.537 0-51.672 23.134-51.672 51.672v98.092c0 28.538 23.134 51.672 51.672 51.672h223.12c28.537 0 51.672-23.134 51.672-51.672v-98.092c0-28.538-23.134-51.672-51.672-51.672z"
      fill="#f9f6f9"/>
    <g fill="#407093">
      <path
        d="m358.773 316.316h-205.546c-4.267 0-7.726-3.459-7.726-7.726s3.459-7.726 7.726-7.726h205.546c4.267 0 7.726 3.459 7.726 7.726.001 4.267-3.459 7.726-7.726 7.726z"/>
      <path
        d="m358.773 363.078h-205.546c-4.267 0-7.726-3.459-7.726-7.726s3.459-7.726 7.726-7.726h205.546c4.267 0 7.726 3.459 7.726 7.726.001 4.267-3.459 7.726-7.726 7.726z"/>
    </g>
  </g>
</svg>
