<svg height="23" viewBox="0 0 512 512" width="23" xmlns="http://www.w3.org/2000/svg"><g id="Flat"><path d="m488 234v-52a6 6 0 0 0 -6-6h-32.871a6 6 0 0 1 -5.8-4.487 143.054 143.054 0 0 0 -15.018-36.219 6 6 0 0 1 .925-7.277l23.254-23.255a6 6 0 0 0 0-8.485l-36.767-36.769a6 6 0 0 0 -8.485 0l-23.254 23.254a6 6 0 0 1 -7.277.924 143.11 143.11 0 0 0 -36.22-15.017 6 6 0 0 1 -4.487-5.8v-32.869a6 6 0 0 0 -6-6h-52a6 6 0 0 0 -6 6v32.871a6 6 0 0 1 -4.487 5.8 143.088 143.088 0 0 0 -36.219 15.017 6 6 0 0 1 -7.277-.924l-23.255-23.256a6 6 0 0 0 -8.485 0l-36.769 36.769a6 6 0 0 0 0 8.485l23.254 23.255a6 6 0 0 1 .924 7.277 143.088 143.088 0 0 0 -15.017 36.219 6 6 0 0 1 -5.8 4.487h-32.869a6 6 0 0 0 -6 6v52a6 6 0 0 0 6 6h32.871a6 6 0 0 1 5.8 4.487 143.088 143.088 0 0 0 15.017 36.219 6 6 0 0 1 -.924 7.277l-23.254 23.255a6 6 0 0 0 0 8.485l36.769 36.769a6 6 0 0 0 8.485 0l23.255-23.254a6 6 0 0 1 7.277-.924 143.088 143.088 0 0 0 36.219 15.017 6 6 0 0 1 4.487 5.8v32.869a6 6 0 0 0 6 6h52a6 6 0 0 0 6-6v-32.871a6 6 0 0 1 4.487-5.8 143.076 143.076 0 0 0 36.22-15.018 6 6 0 0 1 7.277.925l23.254 23.254a6 6 0 0 0 8.485 0l36.769-36.769a6 6 0 0 0 0-8.485l-23.254-23.255a6 6 0 0 1 -.925-7.277 143.054 143.054 0 0 0 15.018-36.219 6 6 0 0 1 5.8-4.487h32.867a6 6 0 0 0 6-5.998zm-181.5 21.937a48 48 0 1 1 45.437-45.437 48.006 48.006 0 0 1 -45.437 45.437z" fill="#ffb431"/><path d="m159.418 47.523-10.718-11.882c4.627-4.172 9.484-8.208 14.436-12l9.722 12.707c-4.608 3.531-9.131 7.29-13.44 11.175z" fill="#eaeae8"/><path d="m102.18 130.858-14.944-5.716a230.756 230.756 0 0 1 51.672-80.142l11.385 11.242a214.824 214.824 0 0 0 -48.113 74.616z" fill="#eaeae8"/><path d="m390.275 423.426-5.953-14.852c4.883-1.957 9.757-4.123 14.487-6.437l7.031 14.372c-5.081 2.491-10.318 4.813-15.565 6.917z" fill="#eaeae8"/><path d="m420.944 408.412-8.076-13.812a218.441 218.441 0 0 0 68.42-63.177l13.123 9.154a234.552 234.552 0 0 1 -73.467 67.835z" fill="#eaeae8"/><path d="m388.478 268.672-12.989-9.344a88.009 88.009 0 0 0 -71.489-139.328 88.29 88.29 0 0 0 -80.024 51.337l-14.541-6.674a104.015 104.015 0 0 1 198.565 43.337 103.278 103.278 0 0 1 -19.522 60.672z" fill="#f9a91b"/><rect fill="#375e8d" height="216" rx="24" width="312" x="48" y="256"/><path d="m304 192h-200a24 24 0 0 0 -24 24v240h248v-240a24 24 0 0 0 -24-24z" fill="#86b63b"/><path d="m104 216h16v16h-16z" fill="#78a732"/><path d="m136 216h16v16h-16z" fill="#78a732"/><path d="m168 216h16v16h-16z" fill="#78a732"/><path d="m104 248h200v16h-200z" fill="#78a732"/><path d="m104 280h48v16h-48z" fill="#78a732"/><path d="m104 312h32v16h-32z" fill="#78a732"/><g fill="#c6dc3a"><path d="m120 384h16v24h-16z"/><path d="m152 344h16v64h-16z"/><path d="m184 360h16v48h-16z"/><path d="m216 320h16v88h-16z"/><path d="m248 336h16v72h-16z"/><path d="m280 288h16v120h-16z"/><path d="m104 400h200v16h-200z"/></g><path d="m240 448a27.315 27.315 0 0 1 -19.314 8h-33.372a27.315 27.315 0 0 1 -19.314-8 27.315 27.315 0 0 0 -19.314-8h-124.686v24a24 24 0 0 0 24 24h312a24 24 0 0 0 24-24v-24h-124.686a27.315 27.315 0 0 0 -19.314 8z" fill="#dfdfdd"/></g></svg>
