<svg id="Capa_1" enable-background="new 0 0 504.5 504.5" height="50" viewBox="0 0 504.5 504.5" width="50"
     xmlns="http://www.w3.org/2000/svg">
  <g>
    <path
      d="m255.843 64.256-70.941 5.682-34.357-5.682h-7.386c-6.001 0-10.865-4.865-10.865-10.865v-21.263l61.774-4.722 61.774 4.722v32.128z"
      fill="#fff3be"/>
    <path d="m232.434 32.128h23.409v32.128h-23.409z" fill="#ffea8c"/>
    <g>
      <path
        d="m406.787 412.015c-1.887 0-3.775-.708-5.234-2.129-2.966-2.892-3.026-7.64-.136-10.605 36.04-36.978 55.889-85.775 55.889-137.406 0-49.332-18.332-96.516-51.619-132.858-.038-.041-.076-.083-.113-.126l-2.201-2.515-28.535-28.534c-2.929-2.93-2.929-7.678 0-10.607 2.93-2.928 7.678-2.928 10.607 0l28.711 28.711c.117.118.23.239.34.364l2.31 2.639c35.79 39.107 55.501 89.863 55.501 142.927 0 55.565-21.36 108.081-60.146 147.875-1.472 1.507-3.422 2.264-5.374 2.264z"
        fill="#c3aff0"/>
    </g>
    <g>
      <path
        d="m406.789 412.015c-1.066 0-2.131-.228-3.12-.68-1.809-.827-3.215-2.34-3.909-4.204l-16.492-44.306c-1.444-3.882.531-8.2 4.413-9.646 3.882-1.442 8.199.531 9.646 4.413l13.875 37.276 37.276-13.876c3.883-1.442 8.199.531 9.646 4.413 1.444 3.882-.531 8.2-4.413 9.646l-44.305 16.492c-.845.315-1.732.472-2.617.472z"
        fill="#c3aff0"/>
    </g>
    <g>
      <path
        d="m100.494 215.18c-3.043 0-5.906-1.866-7.03-4.886l-13.875-37.275-37.276 13.876c-3.881 1.44-8.2-.531-9.645-4.413s.53-8.2 4.413-9.646l44.305-16.492c1.863-.694 3.927-.618 5.736.209s3.215 2.34 3.909 4.204l16.492 44.305c1.445 3.882-.531 8.2-4.413 9.646-.863.319-1.747.472-2.616.472z"
        fill="#c3aff0"/>
    </g>
    <g>
      <path
        d="m187.352 449.063c-.99 0-1.996-.197-2.963-.613-37.584-16.184-69.614-42.785-92.627-76.93-23.637-35.07-36.131-75.901-36.131-118.079 0-32.767 7.281-64.184 21.641-93.38 1.828-3.716 6.325-5.247 10.04-3.42 3.717 1.828 5.248 6.323 3.42 10.041-13.338 27.118-20.101 56.308-20.101 86.759 0 39.18 11.608 77.111 33.57 109.695 21.403 31.756 51.183 56.492 86.121 71.536 3.804 1.639 5.561 6.051 3.922 9.854-1.222 2.839-3.987 4.537-6.892 4.537z"
        fill="#c3aff0"/>
    </g>
    <circle cx="366.268" cy="77.575" fill="#ffd15b" r="62.411"/>
    <path
      d="m347.754 106.676c4.095 2.679 7.328 3.991 10.884 4.597v.862c0 4.143 3.357 7.5 7.5 7.5s7.5-3.357 7.5-7.5v-1.691c8.192-2.894 13.436-10.242 14.659-17.516 1.713-10.191-3.804-19.396-13.729-22.903-4.889-1.728-10.277-3.801-13.183-6.079-.92-1.405-.545-4.886 2.461-5.986 4.941-1.486 8.082.964 8.425 1.249l2.81 1.335s7.067 3.173 9.519-3.317c1.961-5.191-2.287-9.158-2.287-9.158-1.72-1.586-4.746-3.506-8.676-4.629v-.76c0-4.143-3.357-7.5-7.5-7.5s-7.5 3.357-7.5 7.5v1.217c-6.344 2.265-11.038 7.836-12.343 14.761-1.268 6.726.969 13.273 5.834 17.09 4.601 3.608 11.102 6.179 17.44 8.419 3.893 1.376 4.288 4.171 3.935 6.274-.507 3.015-3.043 6.271-7.417 6.301-5.122.032-6.355-.155-10.122-2.619-3.467-2.27-8.115-1.296-10.382 2.171s-1.295 8.116 2.172 10.382z"
      fill="#918291"/>
    <path
      d="m366.268 15.165c-4.002 0-7.911.392-11.704 1.112 28.871 5.48 50.706 30.833 50.706 61.299s-21.835 55.818-50.706 61.299c3.793.72 7.702 1.112 11.704 1.112 34.469 0 62.411-27.942 62.411-62.411s-27.943-62.411-62.411-62.411z"
      fill="#ffc344"/>
    <path
      d="m244.977 128.511h-101.818c-6.001 0-10.865-4.865-10.865-10.865v-10.397c0-6.001 4.865-10.865 10.865-10.865h7.386l45.917-6.774 59.38 6.774v21.262c.001 6.001-4.864 10.865-10.865 10.865z"
      fill="#fff3be"/>
    <path
      d="m232.434 96.383v21.262c0 6.001-4.865 10.865-10.865 10.865h23.409c6.001 0 10.865-4.865 10.865-10.865v-21.262z"
      fill="#ffea8c"/>
    <path
      d="m263.229 96.383h-112.684v-32.127h112.684c6.001 0 10.865 4.865 10.865 10.865v10.397c0 6.001-4.864 10.865-10.865 10.865z"
      fill="#ffd15b"/>
    <path
      d="m263.229 64.256h-23.409c6.001 0 10.865 4.865 10.865 10.865v10.397c0 6.001-4.865 10.865-10.865 10.865h23.409c6.001 0 10.865-4.865 10.865-10.865v-10.397c0-6.001-4.864-10.865-10.865-10.865z"
      fill="#ffc344"/>
    <path d="m255.843 32.128h-123.549v-22.132c0-5.521 4.475-9.996 9.996-9.996h103.557c5.521 0 9.996 4.475 9.996 9.996z"
          fill="#ffd15b"/>
    <path d="m245.847 0h-23.409c5.521 0 9.996 4.475 9.996 9.996v22.132h23.409v-22.132c0-5.521-4.476-9.996-9.996-9.996z"
          fill="#ffc344"/>
    <path d="m348.731 497h-166.375v-49.649l7.161-29.304-7.161-26.809v-52.145h166.375v52.145l-8.482 26.809 8.482 29.304z"
          fill="#918291"/>
    <path d="m325.323 339.093v157.907h23.408v-49.649l-8.482-29.304 8.482-26.809v-52.145z" fill="#7a6d79"/>
    <g>
      <circle cx="215.02" cy="366.191" fill="#eaa998" r="7.862"/>
    </g>
    <g>
      <circle cx="215.02" cy="472.175" fill="#eaa998" r="7.862"/>
    </g>
    <g>
      <circle cx="315.835" cy="366.191" fill="#eaa998" r="7.862"/>
    </g>
    <g>
      <circle cx="315.835" cy="472.175" fill="#eaa998" r="7.862"/>
    </g>
    <g>
      <path
        d="m286.311 504.5h-41.97c-4.142 0-7.5-3.357-7.5-7.5v-54.65c0-4.143 3.358-7.5 7.5-7.5s7.5 3.357 7.5 7.5v47.15h26.97v-47.15c0-4.143 3.357-7.5 7.5-7.5s7.5 3.357 7.5 7.5v54.65c0 4.143-3.358 7.5-7.5 7.5z"
        fill="#7a6d79"/>
    </g>
    <g>
      <path
        d="m286.311 403.74c-4.143 0-7.5-3.357-7.5-7.5v-49.65h-26.97v49.65c0 4.143-3.358 7.5-7.5 7.5s-7.5-3.357-7.5-7.5v-57.15c0-4.143 3.358-7.5 7.5-7.5h41.97c4.143 0 7.5 3.357 7.5 7.5v57.15c0 4.143-3.358 7.5-7.5 7.5z"
        fill="#7a6d79"/>
    </g>
    <g>
      <path
        d="m367.177 346.593h-203.267c-4.142 0-7.5-3.357-7.5-7.5s3.358-7.5 7.5-7.5h203.267c4.143 0 7.5 3.357 7.5 7.5s-3.358 7.5-7.5 7.5z"
        fill="#685e68"/>
    </g>
    <g>
      <path
        d="m367.177 504.5h-203.267c-4.142 0-7.5-3.357-7.5-7.5s3.358-7.5 7.5-7.5h203.267c4.143 0 7.5 3.357 7.5 7.5s-3.358 7.5-7.5 7.5z"
        fill="#685e68"/>
    </g>
    <path d="m182.356 391.238h166.375v56.113h-166.375z" fill="#e5646e"/>
    <path d="m325.323 391.238h23.409v56.113h-23.409z" fill="#db4655"/>
    <g>
      <path
        d="m297.443 425.106h-64.332c-4.142 0-7.5-3.357-7.5-7.5s3.358-7.5 7.5-7.5h64.332c4.143 0 7.5 3.357 7.5 7.5s-3.357 7.5-7.5 7.5z"
        fill="#edf4ff"/>
    </g>
  </g>
</svg>
