<?xml version="1.0"?>
<svg xmlns="http://www.w3.org/2000/svg" viewBox="0 0 512 512" width="512" height="512"><g id="Filled_outline" data-name="Filled outline"><path d="M392,456H152a32,32,0,0,1-32-32V56a32,32,0,0,1,32-32H376a48,48,0,0,1,48,48V424A32,32,0,0,1,392,456Z" style="fill:#348fd9"/><path d="M360,488H120a32,32,0,0,1-32-32V88a32,32,0,0,1,32-32H304l88,80V456A32,32,0,0,1,360,488Z" style="fill:#60d1e0"/><path d="M304,56v48a32,32,0,0,0,32,32h56Z" style="fill:#8adbe6"/><path d="M280,192V160l-64,72,64,72V272h95.432A136.567,136.567,0,0,1,472,312h0A120,120,0,0,0,352,192Z" style="fill:#ffb531"/><path d="M232,416v32l64-72-64-72v32H136.568A136.567,136.567,0,0,1,40,296h0A120,120,0,0,0,160,416Z" style="fill:#d75246"/><path d="M416,304h16V424a40,40,0,0,1-5.357,20.007l-13.85-8.014A23.956,23.956,0,0,0,416,424Zm16-120V72a56.063,56.063,0,0,0-56-56H152a39.955,39.955,0,0,0-26.457,10l10.586,12A23.969,23.969,0,0,1,152,32H376a40.045,40.045,0,0,1,40,40V184Zm-48-8V144H336a40.045,40.045,0,0,1-40-40V64H120A24.028,24.028,0,0,0,96,88V304H80V88a40.045,40.045,0,0,1,40-40H304a8.006,8.006,0,0,1,5.382,2.08l88,80A8,8,0,0,1,400,136v40Zm-12.693-48L312,74.084V104a24.028,24.028,0,0,0,24,24ZM384,456a24.028,24.028,0,0,1-24,24H120a24.028,24.028,0,0,1-24-24V416H80v40a40.045,40.045,0,0,0,40,40H360a40.045,40.045,0,0,0,40-40V296H384ZM152,216v16h40V216Zm-16,0H120v16h16Zm16,48h48V248H152Zm-16-16H120v16h16Zm16,48h56V280H152Zm-32,0h16V280H120Zm176,32h16V312H296Zm72-16H328v16h40Zm-72,48h16V344H296Zm32,0h40V344H328Zm0,32h40V376H328Zm-32,16v16h16V408Zm32,16h40V408H328ZM216,184H120v16h96Zm48,272H368V440H264Zm-144,0h88V440H120Zm96-288h32V152H216Zm72-48H216v16h72ZM124,168a4,4,0,0,1-4-4V112a8,8,0,0,1,4.422-7.155l32-16a8,8,0,0,1,7.156,0l32,16A8,8,0,0,1,200,112v52a4,4,0,0,1-4,4Zm60-32H168v16h16Zm-48-16h48v-3.056l-24-12-24,12Zm0,32h16V136H136ZM480,312c0,7.074-8.805,10.51-13.657,5.657A127.724,127.724,0,0,0,375.432,280H288v24a8,8,0,0,1-13.979,5.314l-64-72a8,8,0,0,1,0-10.628l64-72A8,8,0,0,1,288,160v24h64A128.146,128.146,0,0,1,480,312Zm-17.6-18.952A112.18,112.18,0,0,0,352,200H280a8,8,0,0,1-8-8V181.042L226.7,232,272,282.958V272a8,8,0,0,1,8-8h95.432A143.472,143.472,0,0,1,462.4,293.048ZM160,424A128.146,128.146,0,0,1,32,296a8,8,0,0,1,13.657-5.657A127.724,127.724,0,0,0,136.568,328H224V304a8,8,0,0,1,13.979-5.314l64,72a8,8,0,0,1,0,10.628l-64,72A8,8,0,0,1,224,448V424Zm0-16h72a8,8,0,0,1,8,8v10.958L285.3,376,240,325.042V336a8,8,0,0,1-8,8H136.568A143.472,143.472,0,0,1,49.6,314.952,112.18,112.18,0,0,0,160,408Z"/></g></svg>
